<?xml version="1.0" encoding="UTF-8"?> <!-- Generator: Adobe Illustrator 24.0.2, SVG Export Plug-In . SVG Version: 6.00 Build 0) --> <svg xmlns="http://www.w3.org/2000/svg" xmlns:xlink="http://www.w3.org/1999/xlink" version="1.1" id="Layer_2" x="0px" y="0px" viewBox="0 0 1080 1296" style="enable-background:new 0 0 1080 1296;" xml:space="preserve"> <style type="text/css"> .st0{fill:#FFFFFF;} .st1{fill:#FAFCFC;} .st2{fill:#F6A396;} .st3{fill:#F8DED4;} .st4{fill:none;stroke:#F8DED4;stroke-width:0;stroke-linecap:round;stroke-linejoin:round;} </style> <g> <path class="st0" d="M788.6,977c-2.7,5.5-5,11.1-7.2,16.8c-2.5,6.3-4.6,12.6-6.6,19.1c3.1-7.5,5.3-13,6-14.7c0.3-0.9,0.7-1.7,1-2.6 c2.2-5.7,4.6-11.3,7.2-16.8c2.6-5.3,5.3-10.5,8.6-15.6c0-0.8,0-1.6,0-2.4C794.2,966.1,791.3,971.5,788.6,977z"></path> <path class="st0" d="M760.6,1188.4c-4.5-0.8-9-3-13.1-5.7c-4.1-2.8-7.7-6.4-10.4-10.3c-1.6-2.3-2.8-4.7-3.4-7 c0.4,2.6,1.8,5.8,3.8,8.7c2.6,3.9,6.3,7.5,10.4,10.3c4.1,2.8,8.6,4.9,13.1,5.7c3,0.6,5.8,0.6,8.6,0.1c0.2-0.6,0.3-1.2,0.5-1.9 C767,1189,763.9,1189.1,760.6,1188.4z"></path> <path class="st0" d="M638.5,1101.7c-0.9-2.2-1.6-4.4-2.1-6.7c0.1,0.3,0.1,0.5,0.2,0.8c0.6,2.6,1.4,5.1,2.4,7.6 c0.5,1.2,1,2.5,1.6,3.7c0.4,0.4,0.7,0.9,1.1,1.3C640.4,1106.2,639.4,1104,638.5,1101.7z"></path> <path class="st0" d="M839.2,1190.4c-0.4,0.3-0.8,0.6-1.3,0.9c-2,1.2-4.5,2.4-7.2,3.3c-5.4,1.8-11.4,3-17.3,3.4 c-5.9,0.4-11.9,0.1-17.1-1.2c-3.9-1-7.2-2.5-9.6-4.6c-0.1,0.4-0.2,0.7-0.3,1.1c2.5,2.4,6.1,4.1,10.3,5.2c5.2,1.3,11.1,1.7,17.1,1.2 c5.9-0.4,11.9-1.6,17.3-3.4c2.7-0.9,5.3-2.1,7.2-3.3c0.5-0.3,0.9-0.6,1.3-0.9l0.3-0.3l-0.1-2l-0.2,0.1L839.2,1190.4z"></path> <path class="st0" d="M620.8,1030.4c-3.3-12-6.7-24-11.1-35.7c-2.2-5.9-4.6-11.7-7.2-17.4c-2.7-5.7-5.5-11.4-9-16.9 c-0.1,25.7,5.4,49.8,11,73.9c2.7,12.1,5.4,24.1,7.7,36.2c1.2,6,2.4,12,3.3,17.9l0.7,4.4c0.3,1.6,0.5,3.5,0.9,5.2 c0.2,1.2,0.5,2.4,0.8,3.6c-0.1-0.6-0.3-1.2-0.4-1.9c-0.4-1.7-0.6-3.6-0.9-5.2l-0.7-4.4c-0.9-5.9-2.1-11.9-3.3-17.9 c-2.4-12-5-24.1-7.7-36.2c-5.6-24.1-11.1-48.3-11-73.9c3.5,5.5,6.3,11.2,9,16.9c2.7,5.7,5,11.6,7.2,17.4 c4.4,11.7,7.8,23.7,11.1,35.7c3.3,11.9,6.5,23.8,9.5,35.9c-0.1-0.4-0.2-0.9-0.3-1.3C627.4,1054.5,624.2,1042.4,620.8,1030.4z"></path> <path class="st0" d="M654.7,1180.7c-2.6,4.1-6.2,8-10.3,11.1c-4.1,3.1-8.8,5.4-13.3,6.3c-3.5,0.8-6.9,0.7-10.1-0.2l0.4,1.7 c3.2,0.9,6.6,0.9,10.1,0.2c4.6-0.9,9.2-3.3,13.3-6.3c4.1-3,7.8-6.9,10.3-11.1c2.6-4.1,4-8.6,3.6-11.6c-0.1-0.4-0.1-0.7-0.2-1 c0-0.2-0.1-0.3-0.1-0.5l-0.1-0.2l-0.1-0.1c0,0.1,0,0.1,0,0.2C658.7,1172.1,657.3,1176.6,654.7,1180.7z"></path> <path class="st0" d="M899.2,665.9c-7.8,7.5-15.7,14.9-23.9,21.9c-4.1,3.5-8.2,7-12.5,10.3c-4.2,3.4-8.5,6.7-12.8,10 c-8.7,6.4-17.5,12.6-26.8,18.1c-9.2,5.6-18.9,10.6-29.2,14.5c2.5-0.3,5-0.7,7.5-1.2c7.7-3.4,15-7.3,22.1-11.6 c9.3-5.6,18.1-11.7,26.8-18.1c4.3-3.3,8.6-6.5,12.8-10c4.3-3.3,8.3-6.9,12.5-10.3c8.2-7.1,16.1-14.5,23.9-21.9 c15.6-15.1,30.5-30.8,45-47c10-11.2,19.8-22.6,29.4-34.1c-0.7,0-1.3,0.1-2,0.1c-9.1,10.9-18.4,21.7-27.9,32.3 C929.7,635.1,914.8,650.9,899.2,665.9z"></path> <path class="st0" d="M717.9,431.2c40-38.3,102.1,2.7,104.8,4.5l4.2,2.8l0.6-1.1l-5.2-3.5c-2.6-1.8-64.7-42.8-104.8-4.5 c-31.2,29.8-26.8,64.5-23.2,78.7C690.9,493,688,459.9,717.9,431.2z"></path> <path class="st0" d="M577.8,1208.1c-6-0.4-12-1.7-17.4-3.6c-2.7-1-5.3-2.2-7.2-3.4c-0.8-0.5-1.5-1.1-1.9-1.5c0,0.7,0,1.5,0,2.2 l0.3,0c0-0.5-0.2-0.8-0.2-0.9c0-0.1,0,0,0.2,0.2c0.4,0.4,1.1,1.1,2.1,1.7c1.9,1.3,4.5,2.5,7.2,3.4c5.4,1.9,11.5,3.2,17.4,3.6 c6,0.4,11.9,0.1,17.2-1.3c3.8-1,7.1-2.6,9.5-4.7l-0.4-1.8c-2.4,2.1-5.7,3.7-9.5,4.8C589.7,1208.2,583.7,1208.5,577.8,1208.1z"></path> <path class="st0" d="M891.2,1184.8c-0.6,0.6-1.3,1.3-2.1,1.9c-1.6,1.3-3.4,2.5-5.3,3.6c-3.8,2.2-8,3.9-11.9,4.7 c-4,0.9-7.7,0.8-9.9-0.2c-1.1-0.5-2-1.1-2.8-2.1c-0.8-1-1.5-2.3-2-4l-0.4,0.1l0.1,1.8l0.8-0.1c0.5,1.6,1.2,3,2,4 c0.8,1,1.6,1.6,2.8,2.1c2.2,1,5.9,1.1,9.9,0.2c4-0.9,8.2-2.6,11.9-4.7c1.9-1.1,3.7-2.3,5.3-3.6c0.8-0.6,1.5-1.3,2.1-1.9 c0,0,0-0.7-0.1-2C891.4,1184.6,891.3,1184.7,891.2,1184.8z"></path> <path class="st0" d="M945.8,783.9c-0.2,0.5-0.4,1-0.6,1.4c-0.1-0.2-0.2-0.5-0.4-0.7l-16.3,6.5c0.2,0.5,0.5,1.1,0.7,1.6l16.1-6.4 c0.1,0.2,0.2,0.5,0.4,0.7c0.2-0.4,0.4-0.9,0.6-1.4c0.1-0.1,0.7-1.8-0.5-6.4C946.4,782.5,945.9,783.8,945.8,783.9z"></path> <path class="st0" d="M914.8,998.7c-19.4,74-30.6,110.7-35.1,124.9c0.3,0.1,0.6,0.2,0.9,0.4c4.8-15.1,15.9-51.8,34.7-123.5 c26-99.2,18.7-158.6,18.7-159.2l11-3.4c-0.1-0.5-0.3-1.1-0.4-1.7l-11,3.4C933.5,840.1,940.8,899.5,914.8,998.7z"></path> <path class="st0" d="M742.7,559.3c0,0,5.7-2.6,15.6-5.7c14.9-6.2,39.4-13.2,66.4-8.9c3.7,0.2,7.5,0.4,11.4,0.8 C787,531.6,742.7,559.3,742.7,559.3z"></path> <path class="st0" d="M932.9,228.4c0.5,10.3,0.6,20.5-0.1,30.8c-0.6,10.2-1.8,20.4-3.6,30.5c-1.9,10-4.4,19.9-7.5,29.6l-0.8,2.5 l0.5,1.6l0.8-2.4c3.1-9.7,5.6-19.6,7.5-29.6c1.9-10,3-20.2,3.6-30.5c0.7-10.2,0.6-20.5,0.1-30.8c-0.6-10.3-1.6-20.5-3.3-30.6 c-1.1-6.9-2.5-13.7-4.1-20.5c1.4,6.2,2.7,12.5,3.7,18.8C931.3,207.9,932.3,218.1,932.9,228.4z"></path> <path class="st0" d="M577,198.5c-9,8.4-25.8,25-29.3,35.1c0.4-0.1,0.8-0.2,1.3-0.3c4.8-10.2,20-25.2,28.5-33.1 c0.8-1.2,1.5-2.4,2.1-3.6c0.4-0.8,0.7-1.7,0.9-2.3c-0.1,0-0.2,0-0.2,0c-0.2,0-0.5,0.1-0.8,0.2l-0.1,0c0,0.1-0.1,0.2-0.1,0.3 C578.5,196.1,577.8,197.3,577,198.5z"></path> <path class="st0" d="M531.6,1202.4c-0.8,1.1-1.7,1.7-2.8,2.3c-2.2,1-6,1.2-10.1,0.2c-4.1-1-8.3-2.8-12.1-5.1 c-1.7-1-3.2-2.1-4.6-3.3l-0.4,1c0.1,0.1,0.2,0.1,0.2,0.2c1.5,1.3,3.4,2.6,5.3,3.8c3.8,2.3,8.1,4.2,12.1,5.1c4.1,1,7.9,0.9,10.1-0.2 c1.1-0.5,2-1.2,2.8-2.3c0.8-1.1,1.5-2.6,2.1-4.3l0.1,0c0-0.6,0-1.1,0-1.7l-0.5-0.1C533.2,1199.8,532.5,1201.3,531.6,1202.4z"></path> <path class="st0" d="M993.7,492c-5,2.4-10.2,4.7-15.4,6.9c-5.2,2.2-10.4,4.4-15.6,6.4l-24,9.4l2.9,0.8l21.5-8.5 c5.2-2,10.4-4.2,15.6-6.4c5.2-2.2,10.3-4.5,15.4-6.9c5-2.4,10-4.9,14.6-7.5c0.6-0.4,1.3-0.7,1.9-1.1c-0.5-0.4-1-0.7-1.5-1.1 c-0.2,0.1-0.5,0.3-0.7,0.4C1003.7,487.2,998.7,489.6,993.7,492z"></path> <path class="st0" d="M320.5,603.5c0.1,0.6,0.3,1.2,0.4,1.8c2.3-6.2,4.1-12.6,5.1-18.9c-0.1-0.6-0.3-1.2-0.4-1.8 C324.5,590.9,322.8,597.2,320.5,603.5z"></path> <path class="st0" d="M394.3,765.7C394.3,765.7,394.3,765.7,394.3,765.7l-0.2,0C394.2,765.7,394.3,765.7,394.3,765.7z"></path> <path class="st0" d="M298.5,554.5l-6.3-8.1c-1-1.4-2.2-2.6-3.4-3.8l-3.5-3.8c-1.2-1.2-2.3-2.6-3.5-3.7l-3.7-3.5l-3.7-3.5l-1.9-1.7 l-1.7-1.5c-9.2-8.2-17.7-17.4-25.6-27.2c-15.8-19.6-29.4-41.1-40.8-63.6c-9.6-19.2-17.8-39.4-22.7-59.9 c4.9,21.2,13.2,41.9,23.1,61.7c11.4,22.5,25,44.1,40.8,63.6c7.9,9.8,16.4,19,25.6,27.2l1.7,1.5l1.9,1.7l3.7,3.5l3.7,3.5 c1.3,1.1,2.3,2.5,3.5,3.7l3.5,3.8c1.1,1.3,2.4,2.5,3.4,3.8l6.3,8.1c8,11.2,14.5,23.5,18.8,36.8c0.8,2.6,1.6,5.3,2.2,8 c-0.8-3.3-1.6-6.5-2.6-9.7C313.1,578,306.5,565.6,298.5,554.5z"></path> <path class="st0" d="M332.2,1057.2c-0.3,0.1-0.7,0.2-1,0.2c-0.1-0.2-0.3-0.6-0.5-1.2c0.3,1.7,0.7,2.6,0.9,2.9c0.3,0,0.7-0.1,1-0.2 l13.7-6.6l0.3-2.1L332.2,1057.2z"></path> <path class="st0" d="M495.4,1138.8c-2.2-7.4-4.6-14.7-7-22c-5.1-15.2-10.5-30.3-16.2-45.4c-5.7-15-11.6-30-18.2-44.7 c-3.3-7.4-6.8-14.7-10.5-21.9c-3.7-7.2-7.6-14.4-12-21.4c0.9,8.1,2.4,16.1,3.9,24c1.2,6.1,2.6,12.1,4.1,18.1 c-1.3-5.4-2.5-10.9-3.6-16.3c-1.6-7.9-3-15.9-3.9-24c4.4,7,8.3,14.2,12,21.4c3.7,7.2,7.2,14.5,10.5,21.9 c6.7,14.7,12.5,29.7,18.2,44.7c5.7,15,11.1,30.1,16.2,45.4c2.4,7.3,4.8,14.6,7,22c0.1-1.5,1-4.1,2.7-7.1l-0.6-0.3 C497,1135.1,496.2,1136.9,495.4,1138.8z"></path> <path class="st0" d="M318.3,683.3l-22.1-6.2c-0.4,0.4-0.7,0.9-1.1,1.3l23.6,6.6l24,6.7l2.5-0.9L318.3,683.3z"></path> <path class="st0" d="M542.2,763.2c-12.4,0.7-24.7,1.8-37,2.5c-24.7,1.4-49.3,2.1-73.8,1.2c-12.2-0.4-24.4-1.2-36.4-2.8 c-0.4-0.1-0.9-0.1-1.3-0.2l-2.8-1.6c-0.1,0.1-0.3,0.5-0.7,1.1c-6-0.9-12-2-17.9-3.4c-0.9,0.3-1.8,0.7-2.7,1 c6.8,1.7,13.8,3,20.9,4.1c0.3-0.6,3,0.4,3.6,0.5l0.1,0c0,0,0,0,0,0c0.4,0.1,0.7,0.1,1.1,0.2c12,1.6,24.2,2.4,36.4,2.8 c24.4,0.8,49.1,0.2,73.8-1.2c12.3-0.7,24.6-1.8,37-2.5c10.6-0.6,21.3-1.1,32-1.3c1.7-0.6,3.3-1.2,5-1.8 C567,761.9,554.6,762.6,542.2,763.2z"></path> <path class="st0" d="M398.4,727.6c-5.1-0.3-10.5-0.8-15.7-1.4c-5.3-0.6-10.5-1.2-15.8-2c-10.5-1.5-21-3.3-31.3-5.6 c-10.3-2.3-20.5-5-30.4-8.3c-1.6-0.6-3.2-1.1-4.7-1.7l-2.3,0.8c2.5,0.9,4.9,1.8,7.4,2.7c9.9,3.3,20.1,6,30.4,8.3 c10.3,2.3,20.8,4.1,31.3,5.6c5.3,0.8,10.5,1.4,15.8,2c5.2,0.6,10.6,1.1,15.7,1.4l25.4,1.6l2.6-1.5L398.4,727.6z"></path> <path class="st0" d="M582,633.9c3.7,4.3,8.9,7.2,14.8,8.9c5.7,1.7,12,2.3,18.4,2.3c3.5-0.4,6.9-1.1,10.1-2.2 c3.2-1.1,6.2-2.5,8.8-4.3c5.3-3.6,9-8.9,11.2-15.1c1.1-3.1,1.8-6.5,2.1-9.9c0.1-0.9,0.1-1.8,0.2-2.7c-0.2-0.2-0.3-0.5-0.5-0.8 c0,0.6-0.1,1.1-0.1,1.7c-0.3,3.5-1,6.8-2.1,9.9c-2.2,6.2-5.9,11.5-11.2,15.1c-2.6,1.8-5.6,3.2-8.8,4.3c-3.2,1.1-6.6,1.7-10.1,2.2 c-6.4,0-12.7-0.6-18.4-2.3c-5.9-1.7-11.1-4.6-14.8-8.9c-3.7-4.2-6.2-9.6-7.8-15.9c0.1,0.4,0.2,0.9,0.3,1.3 C575.7,624.1,578.3,629.7,582,633.9z"></path> <path class="st0" d="M671.7,612.4c2.7,2.2,5.6,4,8.6,5.3c6,2.6,12.4,3.6,18.7,2.2c3.1-0.7,6.2-1.8,9.2-3.4c2.9-1.6,5.8-3.6,8.5-5.8 c4.4-4.7,8.3-9.7,11-15c2.8-5.5,4.3-11.2,3.7-16.8c-0.2-1.7-0.5-3.4-0.9-5.1c0.2,1.1,0.4,2.3,0.5,3.4c0.6,5.7-0.9,11.4-3.7,16.8 c-2.7,5.3-6.6,10.3-11,15c-2.7,2.2-5.6,4.2-8.5,5.8c-3,1.6-6.1,2.8-9.2,3.4c-6.3,1.4-12.6,0.4-18.7-2.2c-3-1.3-5.9-3.2-8.6-5.3 c-2.4-1.9-4.7-4.1-6.9-6.5c0,0.5,0.1,0.9,0.1,1.4C666.8,608.1,669.2,610.4,671.7,612.4z"></path> <path class="st0" d="M740.1,564.9c1.8,2.9,3.2,6.1,4.1,9.5c-0.9-4-2.4-7.9-4.5-11.2c-2.2-3.6-4.9-6.7-7.9-9.3 c-6-5.2-13.1-8.7-20.6-10c0.7,0.7,1.4,1.4,2,2.1c6.9,1.5,13.3,4.9,19,9.7C735.2,558.2,737.9,561.3,740.1,564.9z"></path> <path class="st0" d="M561,620.6c0,0-52.2,1.5-85.3,40.3c2.8-2.3,5.5-4.5,8.3-6.5c20.2-18.8,44.7-26.6,60.7-29.8 C554.7,621.6,561,620.6,561,620.6z"></path> <path class="st0" d="M1000.7,530.1c-4.4,5.1-9.4,9.8-14.6,14.5c-5.1,4.6-10.6,9-16.1,13.3c-5.5,4.2-11.3,8.4-16.9,12.1l-25.9,17 l3.3-0.2l23-15.2c5.6-3.7,11.4-7.9,16.9-12.1c5.5-4.3,11-8.7,16.1-13.3c5.1-4.6,10.1-9.4,14.6-14.5c0.8-0.9,1.6-1.8,2.3-2.8 c-0.6,0-1.2,0-1.8-0.1C1001.3,529.4,1001,529.7,1000.7,530.1z"></path> <path class="st0" d="M554.9,639.5c6.1-4.9,10.2-7.1,10.2-7.1s-37.4,13.4-49.7,58c0.9-2,1.9-3.9,2.8-5.8 C527.2,660,543.9,646.2,554.9,639.5z"></path> <path class="st0" d="M662.7,593.8c-1.2-5.2-2.9-10.2-5.1-15l-0.2,0.4C659.7,583.8,661.4,588.7,662.7,593.8z"></path> <path class="st0" d="M838.3,576.9c3.1,0.8,6.3,1.8,9.4,2.8c-44.9-24-94.1-6.4-94.1-6.4s6.3-1.4,16.6-2.3 C786.4,568.2,812.4,566.4,838.3,576.9z"></path> <path class="st0" d="M564.7,618.5c0.4-7.7,2.5-15.1,6.5-21.3c0-0.8-0.1-1.5-0.1-2.3c-2.1,3.2-3.7,6.7-4.9,10.4 c0.2,0,0.3,0.1,0.3,0.1s-0.1,0-0.3,0c-1.1,3.6-1.8,7.5-2,11.4c-0.2,3.9,0.2,8,1.3,12C564.8,625.3,564.5,621.8,564.7,618.5z"></path> <path class="st0" d="M613.4,558l32.6-16c9.7-4.8,19.3-0.7,21.6,6.6c-1.3-8.4-11.7-13.5-22.1-8.4l-32.6,16 c-8.3,4.1-11.4,12-9.4,18.2C602.6,568.7,605.9,561.7,613.4,558z"></path> <path class="st0" d="M549.9,603.9c10-0.7,16.2-0.3,16.2-0.3s-51.3-9.7-92,21.2c3.6-1.9,7.2-3.6,10.8-5.1 C508.5,605.9,533.9,603.6,549.9,603.9z"></path> <path class="st0" d="M818.5,598.3c2.5,1.2,5,2.4,7.6,3.8c-36.6-28.3-74.6-16.6-74.6-16.6s4.9-0.7,13.1-0.4 C777.2,584.2,797.6,585.3,818.5,598.3z"></path> <path class="st0" d="M1063.1,478.2c-1.5-5.8-6.5-10-12.4-10.6c-20-2.2-44.3-31.6-51.1-41.7c-0.2-0.4-0.5-0.7-0.8-1.1 c-4.7-7.3-9.4-15.3-14-24.3c-6.5-12.4-12.7-26-18.4-40.5c-4.5-11.6-8.7-23.8-12.3-36.1c2.6-8.8,4.7-17.8,6.4-26.8 c2-10.6,3.3-21.8,4.1-34.2c0.7-10.8,0.7-22.1,0.1-34.4c-0.7-12.2-1.9-23.3-3.7-34c-4-23.8-10.2-46.1-18.7-66.2 c-5-11.9-10.5-22.2-16.7-31.7c-1.5-2.3-3.3-5-5.3-7.6c-2-2.8-4.1-5.2-6-7.4c-0.1-0.1-0.1-0.2-0.2-0.2c-4-4.5-8.9-9.6-15.2-14.1 c-7.2-5.2-14.7-8.8-22.4-10.7c-6.8-1.6-14-2.1-22.5-1.6c-0.1,0-0.2,0-0.3,0c-11.9,1-24,3.9-37.1,8.8c-19.9,7.6-39.7,18.5-60.7,33.3 c-18.5,13.2-35.7,28.2-51.2,44.9c-12.9,14-23.5,27.8-32,41.8c-5.1-0.5-10.7-0.7-16.8-0.7c-11.8,0-22.8,1.3-32.1,2.6 c-4,0.5-8,1.2-12.2,1.9c-0.1-0.6-0.2-1.2-0.4-1.8c-0.1-0.2-0.1-0.5-0.2-0.7l-0.1-0.3c-0.3-1.1-0.8-2.7-1.7-4.5 c-1.6-3.2-3.7-6.2-6.3-8.7c-0.1-0.1-0.2-0.2-0.4-0.3l-0.3-0.2c-0.8-0.7-1.9-1.7-3.3-2.6c-0.9-0.6-1.8-1.1-2.7-1.7l-0.8-0.5 c-1.2-0.7-2.5-1.3-3.9-1.6l-0.7-0.2c-2.7-0.7-5.6-1.3-8.9-1.3l-0.3,0c-0.9,0-2.3,0-4,0.2l-2.1,0.3c-1.6,0.2-2.9,0.5-4,0.8l-1.9,0.5 c-0.2,0.1-0.4,0.1-0.7,0.2c-1.2,0.4-2.2,0.8-3.3,1.2l-0.8,0.3c-0.2,0.1-0.4,0.1-0.6,0.2c-5.8,2.4-10.4,5.3-14.2,7.8 c-8.4,5.7-15.7,11.9-21,16.8c-5.8,5.2-11.7,11-18,17.6c-4.3,4.5-8.3,8.9-12.2,13.2l-0.6,0.2c-0.1,0-0.2,0.1-0.2,0.1 c-2.7,0.9-4.9,1.7-7.1,2.5c-5,1.8-9.8,3.7-13.9,5.4c-8.2,3.5-16.8,7.5-26.3,12.3c-7.6,3.8-15.6,8.2-25.2,13.8 c-2.7,1.6-5.4,3.2-8.1,4.8c-1.4,0.8-2.7,1.7-4.1,2.5c-0.1,0.1-0.2,0.1-0.3,0.2l-2.4,1.5c-21.4-7-44.1-12.1-69.3-15.5 c-29.5-3.9-56.5-4.6-82.6-2.2c-16.5,1.6-30,4.1-42.6,7.9l-0.9,0.3c-3.1,1-6.3,2-9.7,3.3c-3.2,1.1-6.1,2.4-8.8,3.7l-1.6,0.7 c-0.2,0.1-0.4,0.2-0.6,0.3c-8.5,4.3-15.1,8.6-21,13.6c-7.3,6.4-13.2,13.7-17.4,21.6c-0.1,0.2-0.2,0.4-0.3,0.6l-0.6,1.3 c-0.7,1.4-1.4,2.9-2.1,4.6c-0.1,0.2-0.2,0.5-0.3,0.7l-1.8,5.2c0,0.1-0.1,0.2-0.1,0.3c-0.5,1.7-0.9,3.2-1.2,4.5 c-0.1,0.5-0.2,1-0.3,1.4c-0.6,2.3-0.9,4.4-1.2,6l-0.1,0.5c-0.6,3.4-0.9,6.7-1.1,9.5c-0.1,0.7-0.1,1.5-0.2,2.2 c0,0.4-0.1,0.8-0.1,1.1c0,0.9,0,1.7,0,2.6c-0.1,2.6-0.1,5.6,0.1,8.6c0.3,8,1.4,15.6,2.4,22c0,0.1,0,0.2,0,0.2 c4.6,25.1,13.6,50.9,27.8,79.2c12.8,25.3,27.7,48.6,44.4,69.3c9.8,12.1,19.3,22.2,29.1,30.9l10.1,9.4c0.1,0.1,0.2,0.2,0.3,0.2 c0.3,0.3,0.6,0.6,0.8,0.9c0.4,0.5,0.9,1,1.3,1.5l2.9,3.2c0.4,0.5,0.8,0.9,1.2,1.4c0.3,0.3,0.6,0.6,0.8,0.8c0.1,0.2,0.2,0.3,0.4,0.5 l5.4,6.9c6.5,9.2,11.2,18.5,14.2,27.7c1.7,5.3,2.8,10.2,3.4,14.9c0.3,2.3,0.5,4.9,0.6,7.4c0,0.1,0,0.2,0,0.3c0,0.8,0,1.6,0,2.3 l-0.1,2.8c-3.7,5.6-7.9,11.3-12.7,17.3l-0.2,0.3c-1.3,1.6-2.5,3.2-3.8,4.6c0,0.1-0.1,0.1-0.1,0.2c-1.7,2-2.9,3.4-4.1,4.8 c0,0-0.1,0.1-0.1,0.1c-3,3.4-5.9,6.5-8.5,9.1l-10.9,10.9c-3.6,3.6-5,8.8-3.8,13.7l-1.8,0.5c-5.6,1.7-9.6,6.6-10.2,12.4 c-0.6,5.8,2.4,11.4,7.5,14.1l18.8,10.2c10.1,5.5,21.1,10.2,33.8,14.5c8.5,2.8,17.7,5.3,28,7.7c-1.8,4.1-2.4,8.5-1.8,12.9 c0.7,5.8,3.6,11.3,7.9,15.2c1,0.9,2,1.7,3.1,2.4c0.1,0.1,0.2,0.1,0.3,0.2c1,0.6,2,1.2,3.1,1.7c0.2,0.1,0.4,0.2,0.7,0.3l4.2,1.6 c0.1,0,0.1,0.1,0.2,0.1c0.4,0.2,0.9,0.3,1.3,0.5c1.1,0.4,2.5,1,4.1,1.5l4.6,1.5c0.1,0,0.1,0,0.2,0.1c2.6,0.8,5.2,1.5,7.9,2.2 c-6.4,11.7-10.8,21.3-11.5,29.7c-6.2-8.7-13.4-16.6-21.5-23.7C265,743.3,172.7,758,168.9,758.7l-22.2,3.6 c-5.9,1-10.6,5.5-11.8,11.4c-1.2,5.9,1.4,11.9,6.5,15.1l6.9,4.4c-33.5,6.7-57.6,22.4-73.2,36.1c-4.4,3.9-8.7,8.1-12.7,12.5 c-11.3,10.9-37.4,47.9-45.4,77.8c-1.8,6.6,1.3,13.5,7.4,16.6c3,1.6,6.4,1.9,9.6,1.3c-11.8,32.8-10.9,65.3,3,95.1l8.8,18.9 c2.4,5.2,7.8,8.5,13.6,8.3c5.8-0.2,10.9-3.8,13-9.2l7.5-19.4c7-18,18.2-32.9,31-45.2c2.9,3.1,7,4.8,11.5,4.5 c21.1-1.4,36.4-9.7,48.7-16.5l2-1.1c22.3-8.6,53.8-15.6,70.9-7.8c19.3,8.9,42.5,58.2,52,88.7c0.7,2.2,1.7,4.3,3,6.2 c1.5,10.5,6,18.6,13.3,24.1c0.5,0.4,1,0.7,1.5,1.1c1.8,13,6.3,30.1,17.2,48c18,29.7,57.8,68,145.5,84.1c1.2,1.3,2.5,2.5,4,3.8 c2.9,2.5,6.1,4.8,9.7,7c7,4.3,14.1,7.2,21.6,9c4.8,1.1,9.4,1.6,13.9,1.5c6.1-0.1,11.8-1.4,16.9-3.7c0.8-0.4,1.6-0.8,2.4-1.2 c1.8,0.8,3.4,1.4,4.8,1.9c8.3,2.9,16.8,4.7,26.1,5.4c2.5,0.2,4.9,0.3,7.3,0.3c7.3,0,14.2-0.9,20.8-2.6c5.6-1.5,10.8-3.7,15.4-6.5 c0.2-0.1,0.5-0.3,0.7-0.4c5.8,0.9,11.8,0.9,17.4-0.1c9.6-1.6,18.9-5.4,27.5-11.4c0.1-0.1,0.2-0.1,0.3-0.2l74-2.7 c5.5,2.4,11.1,4,16.7,4.8c5.4,0.8,11,0.7,16.5-0.1c0.3,0.2,0.7,0.4,1,0.6c4.6,2.6,9.5,4.6,15.2,6.1c8.5,2.2,17.4,2.9,27.5,2.2 c8.9-0.6,17.3-2.3,25.7-5.1c1.4-0.5,3.2-1.1,5.1-2c0.8,0.4,1.7,0.8,2.5,1.2c5,2.2,10.5,3.4,16.4,3.5c4.4,0.1,8.8-0.3,13.5-1.3 c7.3-1.6,14.2-4.3,21.2-8.3c3.5-2,6.6-4.1,9.5-6.5c1.8-1.4,3.3-2.9,4.8-4.3c0.8-0.8,1.5-1.6,2-2.2l0.4-0.4c0.2-0.3,0.4-0.5,0.7-0.8 l0.9-1.1c0.1-0.1,0.1-0.2,0.2-0.3c0.3-0.4,0.5-0.7,0.9-1.2c0.1-0.2,0.2-0.3,0.3-0.5l0.6-1c1.9-3.3,2.9-6.2,3.4-8.5 c5.9-4,15.2-10.6,29.5-21.3c12-8.9,21.8-23.1,29.3-42.1c4.9-1.1,8.9-4.7,10.5-9.6l9.2-28.2c19.9-61.4-27.6-135.1-41.3-154.6 C965.8,906,967,882,967,865c17.8-12.3,9.6-35.5,2.4-56c0,0,0,0,0,0c2.5-3.2,4.6-6.9,6.5-11.3c7.3-17.1,0.1-38.8-24-72.4 c-8.2-11.5-21.4-27.4-30.8-38.6c15.6-13.9,31.1-28.9,46.2-44.9c8.2-8.7,15.6-16.9,22.6-25c2.9-3.3,5.8-6.8,8.9-10.5 c10.3-11.8,23-28.4,27.2-37.5c2.4-5.1,1.5-11-2-15.3c0.3-0.3,0.5-0.6,0.8-0.9c4.6-5.3,10.6-12.6,15.5-21.7l7.6-14.1 c2.5-4.7,2.3-10.4-0.7-14.9c-0.2-0.3-0.4-0.6-0.7-0.9c3.9-2.4,7.6-4.9,11.1-7.4C1062.4,490.1,1064.6,483.9,1063.1,478.2z M1022.6,497.6c-1.8,1.2-3.6,2.3-5.4,3.3c-5.3,3-10.6,5.6-15.9,8.2c-1.8,0.8-3.6,1.7-5.4,2.5c3.6,0.3,7.1,0.5,10.6,0.6 c4.2,0.1,8.4-0.2,12.5-0.6l16.1-1.7l-7.6,14.1c-3.9,7.2-8.7,13.4-13.7,19.1c-5,5.8-10.4,10.9-16,15.9c-3.8,3.4-7.6,6.6-11.5,9.8 l1.8-0.2l2-0.2c0.3,0,0.4-0.1,0.7-0.1l0.2,0l0.1,0l0,0l-0.1,0l-0.3,0.1c0,0-0.1,0-0.1,0c7.7-1,17.1-2.7,22.3-5.7 c-3.1,6.8-14,21.7-25,34.2c-2.9,3.5-5.8,7-8.8,10.4c-7.2,8.4-14.6,16.6-22.2,24.6c-15.1,16.1-31,31.5-47.6,46.1 c-2.7,2.4-5.5,4.7-8.3,7.1c7.3,8.5,28.2,33,39.3,48.6c26.5,37.1,25.5,51,22.4,58.3c-2.7,6.3-6,10.6-10,12.8 c1.1,2.8,2.2,5.9,3.2,8.9c9.1,25.9,9.8,34.7,2.9,39.4c-1.9,1.3-4.1,2.1-6.3,2.4c0.5,16.8-0.2,46.1-6.7,86.1l0.9-0.6 c2.5,3.4,62,84.2,42.1,145.7l-9.2,28.2l-3.4-12.6c-5.2,20.4-14.6,44.8-31.3,57.3c-20.8,15.5-30.4,21.9-34.3,24.3c0,0.1,0,0.3,0,0.4 c0,0.9-0.2,1.8-0.3,2.7c-0.4,2-0.8,4-2.2,6.6l-0.5,0.9c-0.2,0.3-0.3,0.4-0.4,0.6l-0.9,1.1c-0.6,0.7-1.2,1.4-1.8,2 c-1.2,1.2-2.4,2.3-3.6,3.3c-2.5,2-5,3.7-7.6,5.2c-5.3,3-10.9,5.3-17.1,6.7c-3.1,0.7-6.5,1.1-10,1c-3.5-0.1-7.3-0.7-11-2.3 c-2.6-1.1-5.1-2.8-7.2-4.7c0,0,0,0-0.1,0c-3.7,2.3-7.3,3.8-10.9,5c-7.2,2.4-14.5,3.9-22,4.4c-7.5,0.5-15.1,0.2-22.9-1.8 c-3.9-1-7.8-2.4-11.6-4.6c-1.8-1-3.5-2.2-5.1-3.6c-5.7,1.8-11.8,2.2-17.5,1.3c-5.7-0.8-11-2.6-15.9-5.1l-82.1,3 c-1.1,0.9-2.3,1.8-3.5,2.6c-6.2,4.3-13.4,7.6-21.6,9c-5.8,1-12.3,0.6-18.2-1.2c-1.6,1.4-3.2,2.6-4.9,3.6c-3.8,2.3-7.7,3.8-11.7,4.9 c-7.9,2.1-15.7,2.4-23.3,1.9c-7.6-0.6-15-2-22.3-4.6c-3.6-1.3-7.1-2.8-10.7-5.2c-2,2-4.5,3.7-7.1,4.8c-3.8,1.7-7.8,2.4-11.4,2.4 c-3.7,0.1-7.1-0.4-10.3-1.2c-6.4-1.5-12.1-4.1-17.4-7.3c-2.7-1.6-5.2-3.4-7.7-5.6c-1.2-1.1-2.4-2.2-3.6-3.6 c-0.6-0.7-1.2-1.4-1.8-2.2c-0.1-0.2-0.2-0.3-0.4-0.5c-85.9-14.5-124-50.5-140.9-78.2c-12.3-20.4-15.4-39.2-16-50.2 c-2.2-0.5-4.4-1.5-6.4-3c-5-3.8-7.7-10-8.1-18.7c-1.5-1.1-2.6-2.5-3.2-4.3c-7.1-22.7-31.8-84.6-59.8-97.5c-24-11-62.6-0.2-83,7.8 c-12.1,6.6-26.1,15-45.5,16.3c10.6-5,36.6-38.9,36.6-38.9c-29.3,13.8-73.2,41.4-91.6,88.7l-7.6,19.4l-8.8-18.9 c-14.9-32.1-12.7-68,6.4-104c6-11.2,12.6-20.7,18.4-28c0,0-26.8,8-43.9,28.9c7-26.4,31.2-61.4,41.5-71.2c0.1-0.1,0.1-0.1,0.2-0.2 c3.5-3.9,7.5-7.9,11.9-11.8c19.9-17.5,52.8-36.6,101-35.9c-13.1-12.7-17.5-15.7-17.8-15.9L149,776.5l22.2-3.6 c3.6-0.6,89.5-14.2,145.5,34.5c29.2,25.4,44.5,62.8,45.6,111.3c0.4-0.6,0.7-1.1,1.1-1.7c9.9-14.2,15.9-26.1,19.5-35.3 c-1.9,1-3.7,1.8-5.3,2.2c-3.4,0.8-6.8-0.1-9.2-2.5c-3.1-3.1-6.5-6.5,5.3-49.7c-3.6,0.6-7.1-0.7-9.3-3.4 c-4.4-5.4-3.4-11.7,11.7-38.3c1.8-3.3,3.7-6.5,5.5-9.5c-8.7-1.4-17.4-3.4-26-6l-4.7-1.5c-1.6-0.5-3.1-1.2-4.7-1.7l-2.3-0.9 l-1.2-0.5l-0.6-0.2c-0.5-0.2-1-0.5-1.4-0.8c-0.5-0.3-0.9-0.7-1.4-1.1c-1.8-1.6-2.9-3.9-3.2-6.2c-0.3-2.2,0.1-4.5,1.4-6.6 c1.2-2.1,3.4-3.8,5.6-4.5c0.5-0.2,1.1-0.3,1.6-0.4l0.4-0.1l0.5-0.1c5.3-0.8,10.9-2.4,16.4-4.4c1.8-0.7,3.7-1.4,5.5-2.1 c-0.8-0.1-1.6-0.2-2.4-0.3c-10.9-1.5-21.8-3.3-32.6-5.6c-10.8-2.4-21.6-5.1-32.3-8.6c-10.7-3.6-21.2-7.9-31.3-13.4l-18.8-10.2 l20.6-6.3c5.1-1.5,10.1-3.2,15.2-4.8l-9.4-2.6l-14.8-4.1l10.9-10.9c3-3,6.2-6.4,9.1-9.8c1.5-1.7,3-3.4,4.4-5.1 c1.5-1.7,2.9-3.5,4.3-5.3c5.7-7.1,11-14.4,15.8-22c0.4-0.6,0.7-1.2,1.1-1.8l-1.2-0.2l0-0.3l0-0.5l0.1-1l0.1-2.1 c0-1.4,0.1-2.9,0-4.3c-0.1-2.9-0.4-5.9-0.7-8.8c-0.8-5.9-2.2-11.7-4-17.4c-3.6-11.4-9.3-22.2-16.4-32l-5.6-7.2 c-0.9-1.2-2-2.3-3-3.4l-3.1-3.4c-1.1-1.1-2-2.3-3.2-3.3l-3.4-3.1l-3.4-3.1l-1.7-1.6l-1.9-1.7c-10.1-9-19.1-18.9-27.5-29.2 c-16.7-20.7-30.8-43.1-42.8-66.7c-11.8-23.6-21.6-48.6-26.5-75.3c-1.1-6.7-2-13.5-2.2-20.4c-0.2-3.4-0.1-7,0-10.4 c0.3-3.5,0.5-7,1.1-10.6c0.3-1.8,0.5-3.5,1-5.3c0.5-1.8,0.8-3.5,1.4-5.3l1.8-5.2c0.7-1.7,1.6-3.5,2.4-5.2 c3.6-6.8,8.6-12.7,14.1-17.5c5.6-4.8,11.8-8.5,18.1-11.6c3.2-1.4,6.4-3,9.6-4.1c3.2-1.3,6.5-2.3,9.8-3.3c13.1-3.9,26.4-6,39.7-7.3 c26.6-2.4,53.1-1.3,79.3,2.1c24.8,3.3,49.3,8.7,73.1,17.1l8.2-5.2c4-2.4,7.9-4.8,12-7.2c8-4.7,16.2-9.2,24.5-13.4 c8.3-4.2,16.8-8.2,25.4-11.9c4.3-1.8,8.7-3.6,13.2-5.2c2.2-0.8,4.5-1.6,6.8-2.3l3.5-1.1c0.3-0.1,0.7-0.2,1-0.3 c4.8-5.5,9.5-10.7,14.5-15.8c5.6-5.8,11.3-11.4,17.3-16.9c6-5.4,12.3-10.7,19.4-15.5c3.6-2.4,7.3-4.7,11.7-6.5 c1.2-0.4,2.3-0.9,3.5-1.3l1.9-0.5c0.6-0.2,1.3-0.3,2-0.4l2.2-0.3c0.7-0.1,1.6,0,2.4,0c1.6-0.1,3.5,0.4,5.3,0.8l0.7,0.2l0.8,0.5 c0.7,0.4,1.3,0.8,2,1.3c0.7,0.4,1.3,1.1,2,1.7c1.3,1.2,2.5,2.8,3.3,4.6c0.4,0.9,0.7,1.8,1,2.8c0.2,0.9,0.4,1.8,0.5,2.7 c0.1,0.9,0.1,1.7,0,2.6c-0.1,0.8-0.2,1.5-0.3,2.3c-0.5,2.9-1.5,5.2-2.5,7.3c-0.3,0.6-0.6,1.1-0.9,1.7c0.8-0.2,1.6-0.4,2.4-0.6 c9.7-2.2,19.4-4.1,29.4-5.5c9.9-1.4,19.9-2.4,30.2-2.5c8,0,16.2,0.4,24.5,1.9c9.5-17.6,21.7-33.3,35-47.7 c14.9-15.9,31.3-30.3,49-42.9c17.7-12.6,36.6-23.7,57.4-31.6c10.4-3.9,21.4-6.9,33.2-7.9c5.9-0.3,12.1-0.2,18.4,1.3 c6.5,1.6,12.3,4.7,17.2,8.3c5,3.6,9.1,7.8,13,12.1c1.9,2.2,3.7,4.4,5.4,6.7c1.8,2.3,3.3,4.6,4.9,6.9c6.2,9.4,11.2,19.3,15.5,29.4 c8.5,20.3,14.2,41.4,17.8,62.9c1.8,10.7,2.9,21.6,3.5,32.5c0.6,10.9,0.6,21.8-0.1,32.7c-0.7,10.9-1.9,21.8-3.9,32.5 c-1.9,9.9-4.3,19.7-7.3,29.3c3.9,14,8.6,27.9,13.9,41.5c5.6,14.3,11.9,28.4,19,42c6.4,12.3,13.5,24.2,21.4,35.4l-5.8-8.7 c0,0,30.2,44.6,61.5,47.9C1040.2,488.4,1031,493.6,1022.6,497.6z"></path> <path class="st0" d="M415.8,565.3c0.7-3.1,17.6-75.1,72.7-75.1c0.2,0,0.3,0,0.5,0c54.5,0.4,73.1,45.4,73.8,47.3l0.4,1l0.1-0.4 l-1-2.4c-0.8-1.9-19.3-46.9-73.8-47.3c-0.2,0-0.3,0-0.5,0c-55,0-72,72.1-72.7,75.1l-1.4,6.2l0.8,0.2L415.8,565.3z"></path> <path class="st1" d="M534.5,559.1c8.1-7.1,12.6-15,14.5-18.9c-1.5-3-4.6-8.5-9.8-14.2c0.9,3.5,1.4,7.1,1.4,10.9 C540.6,544.9,538.4,552.5,534.5,559.1z"></path> <path class="st1" d="M771.4,455.3c4.6-4.4,6.2-9.5,5.6-14.3c8.6,9.6,12.3,22,11.1,34c9.4-12.1,17.3-24.4,21.5-31.3 c-11.9-6.7-41.1-20.5-65.6-12.6C731.4,447.3,755,470.7,771.4,455.3z"></path> <path class="st1" d="M732.1,512.6c-7.3-2.1-14.2-6.1-19.8-12.1c-2.6-2.7-4.7-5.7-6.5-8.9c0.2,7.7,1.7,13.8,2.6,17.1 C712.5,510.4,721.3,513.1,732.1,512.6z"></path> <path class="st1" d="M953.1,570c5.6-3.7,11.4-7.9,16.9-12.1c5.5-4.3,11-8.7,16.1-13.3c5.1-4.6,10.1-9.4,14.6-14.5 c0.3-0.4,0.6-0.7,0.9-1.1c-3.2-0.1-6.4-0.4-9.6-0.7c-4.7-0.5-9.4-1.2-14.1-2c-2.3-0.4-4.6-0.9-7-1.4c-2.4-0.5-4.6-1-7.1-1.7 l-24.8-6.7l2.5-1l-2.9-0.8l24-9.4c5.2-2,10.4-4.2,15.6-6.4c5.2-2.2,10.3-4.5,15.4-6.9c5-2.4,10-4.9,14.6-7.5 c0.2-0.1,0.5-0.3,0.7-0.4c-0.2-0.2-0.5-0.3-0.8-0.5c-3.6-2.7-6.9-5.5-9.9-8.5c-6.1-5.9-11.2-12.3-16.1-18.8 c-9.7-13.1-17.9-26.9-25.4-41.1c-7.4-14.2-14-28.8-19.8-43.7c-5.8-14.9-10.8-30.1-15.1-45.5l-0.7-2.4l0-0.1l-0.5-1.6l0.8-2.5 c3.1-9.7,5.6-19.6,7.5-29.6c1.9-10,3-20.2,3.6-30.5c0.7-10.2,0.6-20.5,0.1-30.8c-0.6-10.3-1.6-20.5-3.3-30.6 c-1-6.3-2.3-12.6-3.7-18.8c-3.2-13.2-7.3-26.1-12.5-38.5c-4-9.4-8.6-18.4-14-26.7c-5.4-8.2-11.7-16-19-21.3 c-3.6-2.6-7.3-4.6-11.2-5.5c-4-0.9-8.6-1.1-13.2-0.8c-9.3,0.8-19,3.3-28.4,6.9c-18.8,7.2-36.8,17.6-53.5,29.5 c-16.8,11.9-32.4,25.6-46.4,40.7c-13.9,15-26.4,31.6-35.3,49.6l-3.1,6.3l-6.8-1.8c-8.2-2.2-17.4-2.8-26.5-2.8 c-9.2,0-18.6,1-27.9,2.3c-9.3,1.3-18.7,3.1-28,5.2c-4.6,1-9.3,2.2-13.9,3.4c-4.6,1.2-9.3,2.5-13.6,3.9l-0.2-0.4 c-1.1,0.5-6.4,2.8-24.3,6.7c0.2-0.6,0.5-1.3,0.8-2c-0.4,0.1-0.8,0.2-1.3,0.3c3.5-10.1,20.3-26.7,29.3-35.1c0.8-1.2,1.5-2.4,2.1-3.6 c0-0.1,0.1-0.2,0.1-0.3l-0.8,0.2l-2,0.7c-2.8,1.2-5.9,3-8.8,5c-6,4-11.8,8.9-17.4,14c-5.6,5.1-11.1,10.5-16.5,16.1 c-5.3,5.5-10.6,11.3-15.5,17.1l-1.8,2.1l-2.7,0.7c-0.7,0.2-1.9,0.5-2.9,0.8l-3.1,1c-2.1,0.7-4.1,1.4-6.2,2.2 c-4.1,1.5-8.3,3.2-12.4,4.9c-8.2,3.4-16.3,7.3-24.3,11.3c-8,4-15.9,8.4-23.7,12.9c-3.9,2.2-7.7,4.6-11.6,6.9l-11.4,7.2l-3.6,2.3 l-4-1.5c-23.4-8.7-48.3-14.2-73.4-17.6c-25.1-3.3-50.5-4.4-75.5-2.1c-12.4,1.2-24.8,3.2-36.4,6.7c-2.9,0.9-5.8,1.8-8.6,2.9 c-2.9,1-5.5,2.3-8.2,3.5c-5.2,2.7-10.2,5.6-14.5,9.3c-4.2,3.7-7.7,7.8-10.1,12.5c-0.5,1.2-1.2,2.3-1.7,3.6l-1.4,3.9 c-0.4,1.3-0.7,2.7-1.1,4.1c-0.4,1.4-0.6,2.8-0.8,4.2c-0.6,2.8-0.7,5.8-0.9,8.7c0,3-0.2,5.9,0,8.9c0.2,6,1,12.1,2,18.1 c0.5,3,1.2,5.9,1.8,8.9c4.9,20.6,13,40.7,22.7,59.9c11.4,22.5,25,44.1,40.8,63.6c7.9,9.8,16.4,19,25.6,27.2l1.7,1.5l1.9,1.7 l3.7,3.5l3.7,3.5c1.3,1.1,2.3,2.5,3.5,3.7l3.5,3.8c1.1,1.3,2.4,2.5,3.4,3.8l6.3,8.1c8,11.2,14.5,23.5,18.8,36.8 c1,3.2,1.9,6.5,2.6,9.7c0.2,0.8,0.4,1.7,0.6,2.5c2.3-6.2,4.1-12.5,5.1-18.9c0.1,0.6,0.3,1.2,0.4,1.8c0,0,0,0,0,0 c7.5,29.8-3.7,58.2-21.9,81.3c-1.5,1.9-3,3.8-4.6,5.6c-1.1,1.3-2.2,2.6-3.3,3.9l22.1,6.2l27,7.5l-2.5,0.9l2.9,0.8l-26.3,9.6 c-3.8,1.4-7.3,2.6-11,3.8l-7.9,2.6c1.6,0.6,3.1,1.2,4.7,1.7c9.9,3.3,20.1,6,30.4,8.3c10.3,2.3,20.8,4.1,31.3,5.6 c5.3,0.8,10.5,1.4,15.8,2c5.2,0.6,10.6,1.1,15.7,1.4l28.5,1.8l-2.6,1.5l3.1,0.2l-24.5,14.3c-3,1.7-5.7,3.2-8.6,4.7 c-2.9,1.5-5.7,2.9-8.7,4.3c-4.3,2-8.6,3.9-13.1,5.6c5.9,1.4,11.8,2.5,17.9,3.4c0.4-0.6,0.6-1,0.7-1.1l2.8,1.6 c0.4,0.1,0.9,0.1,1.3,0.2c12,1.6,24.2,2.4,36.4,2.8c24.4,0.8,49.1,0.2,73.8-1.2c12.3-0.7,24.6-1.8,37-2.5 c12.4-0.6,24.8-1.3,37.5-1.3c-1.7,0.6-3.3,1.2-5,1.8c1.8,0,3.6,0,5.4,0c-11.5,4.3-23.3,7.5-35.3,10c-18.7,7-55.1,19.1-87.1,21.2 c51,0,55.1,0,55.4,0c0,0,0,0,0,0c0,0,0,0,0,0c0,0-95.1,10.1-95.6,30.7c-0.5,20.6-9.1,96.1-36.7,128.9c9.5-25.5,14.1-45.9,16.3-61.2 c-4.2,9.3-10.2,20.5-19,33.2c-6.7,9.7-12.5,19.5-17.5,29.1c-0.3,1.7-1.1,3.3-2.3,4.5c-16.3,32.7-23.6,63.2-26.8,81 c-1.4,7.9-1.2,12.6-0.8,15.2c0.2,0.6,0.4,1,0.5,1.2c0.3,0,0.7-0.1,1-0.2l14.4-7l-0.3,2.1l0.7-0.3l-1.4,10.7 c5.6,8.3,19.9,28.5,40.7,49.4c27.2,27.2,56.9,30.7,69.5,7c0,0,4.5,15.6,1,27.2c13.1-8.6-14.1-108.2-14.1-108.2l0.1,0.2 c-0.5-1.8-1-3.7-1.4-5.5c-0.6-2.4-1.2-4.8-1.8-7.2c-1.5-6-2.8-12-4.1-18.1c-1.6-7.9-3-15.9-3.9-24c4.4,7,8.3,14.2,12,21.4 c3.7,7.2,7.2,14.5,10.5,21.9c6.7,14.7,12.5,29.7,18.2,44.7c5.7,15,11.1,30.1,16.2,45.4c2.4,7.3,4.8,14.6,7,22 c0.8-1.9,1.6-3.7,2.5-5.6l0.6,0.3c5.6-10.2,20.1-25.2,42.8-18.8c-43.4,27.6-39.3,81.6-39.3,81.6l-0.1,0.2c1.4,1.2,3,2.3,4.6,3.3 c3.8,2.3,8.1,4.2,12.1,5.1c4.1,1,7.9,0.9,10.1-0.2c1.1-0.5,2-1.2,2.8-2.3c0.8-1.1,1.5-2.6,2.1-4.3l0.5,0.1c0.1-9,0.5-19.9,1.5-23.6 c1.2-4.5,5.8-7.2,10.4-6.1c4.5,1.2,7.2,5.8,6.1,10.4c-0.5,2.1-0.8,11.2-0.9,20.6c0.4,0.4,1.1,1,1.9,1.5c1.9,1.3,4.5,2.5,7.2,3.4 c5.4,1.9,11.5,3.2,17.4,3.6c6,0.4,11.9,0.1,17.2-1.3c3.8-1,7.1-2.6,9.5-4.8l-6.2-26.9c-1.1-4.6,1.8-9.1,6.4-10.2 c4.6-1.1,9.1,1.8,10.2,6.4l6.1,26.6c3.2,0.9,6.6,0.9,10.1,0.2c4.6-0.9,9.2-3.3,13.3-6.3c4.1-3,7.8-6.9,10.3-11.1 c2.6-4.1,4-8.6,3.6-11.6c0-0.1,0-0.1,0-0.2l-0.1-0.3c-0.4-1-0.8-2.1-1.4-3.2c-1.1-2.2-2.6-4.5-4.2-6.8c-3.3-4.6-7.2-9.4-11.2-14.4 c-4-5-8.1-10.3-11.8-16c-3.7-5.7-6.9-11.9-9.3-18.6c-1-2.7-1.8-5.5-2.4-8.4c-0.3-1.2-0.6-2.4-0.8-3.6c-0.4-1.7-0.6-3.6-0.9-5.2 l-0.7-4.4c-0.9-5.9-2.1-11.9-3.3-17.9c-2.4-12-5-24.1-7.7-36.2c-5.6-24.1-11.1-48.3-11-73.9c3.5,5.5,6.3,11.2,9,16.9 c2.7,5.7,5,11.6,7.2,17.4c4.4,11.7,7.8,23.7,11.1,35.7c3.3,12,6.6,24.1,9.6,36.3c0.1,0.4,0.2,0.9,0.3,1.3c0,0.1,0.1,0.3,0.1,0.4 c1.5,6.1,2.8,12.3,4,18.6l0.9,4.8c0.2,1.2,0.4,2.2,0.6,3.2c0.6,2.3,1.3,4.5,2.1,6.7c0.9,2.3,1.9,4.5,3.1,6.8 c8.7,10.3,22.8,24.1,36.4,25.1c21.9,1.5,43.4-10.2,43.4-10.2c-26.4,3.8-38.9-1.9-38.9-1.9s48.3-8.7,60.4-34 c8.4-17.5,23.4-53.9,31.9-74.6c2-6.4,4.1-12.8,6.6-19.1c2.2-5.7,4.6-11.3,7.2-16.8c2.7-5.5,5.5-11,9-16.3c0,0.8,0,1.6,0,2.4 c0.1-0.2,0.3-0.5,0.4-0.7c0.1,24.9-5.4,48.2-11.1,71.5c-2.7,11.7-5.4,23.3-7.7,34.9c-1.2,5.8-2.4,11.6-3.3,17.2l-0.7,4.3l-1,5.1 c-0.3,1.7-0.9,3.3-1.4,5l-0.7,2.5l-0.9,2.4c-2.4,6.4-5.7,12.4-9.5,17.8c-3.7,5.4-7.8,10.4-11.7,15.2c-4,4.7-7.8,9.3-11,13.6 c-0.8,1.1-1.5,2.2-2.2,3.2c-0.7,1.1-1.2,2.1-1.8,3.1c-0.3,0.5-0.4,1-0.7,1.5l-0.3,0.7c-0.1,0.2-0.3,0.6-0.3,0.6 c-0.2,0.5-0.3,1.1-0.3,1.8c-0.1,0.7,0,1.4,0.1,2.2c0.7,2.2,1.8,4.7,3.4,7c2.6,3.9,6.3,7.5,10.4,10.3c4.1,2.8,8.6,4.9,13.1,5.7 c3.3,0.6,6.5,0.6,9.5-0.1c1.2-4.4,3.1-11.4,6.2-22.7c1.2-4.5,5.9-7.2,10.5-5.9c4.5,1.3,7.2,5.9,5.9,10.5c-2.2,7.8-4.5,16.4-6,22 c2.4,2,5.8,3.6,9.6,4.6c5.2,1.3,11.1,1.7,17.1,1.2c5.9-0.4,11.9-1.6,17.3-3.4c2.7-0.9,5.3-2.1,7.2-3.3c0.5-0.3,0.9-0.6,1.3-0.9 l0.5-0.4l0.2-0.1l-0.9-20.3c-0.2-4.7,3.4-8.7,8.1-8.9c4.6-0.2,8.7,3.4,8.9,8.1l0.9,19.9l0.4-0.1c0.5,1.6,1.2,3,2,4 c0.8,1,1.6,1.6,2.8,2.1c2.2,1,5.9,1.1,9.9,0.2c4-0.9,8.2-2.6,11.9-4.7c1.9-1.1,3.7-2.3,5.3-3.6c0.8-0.6,1.5-1.3,2.1-1.9 c0.1-0.1,0.2-0.2,0.3-0.3c-0.7-9.3-5.3-48.2-31.5-61.6c5.9-3.4,13.3-2,19.7,0.8c4.5-14.2,15.7-50.9,35.1-124.9 c26-99.2,18.7-158.6,18.7-159.2l11-3.4c-2.7-10.3-9.2-28.2-15.5-43.4l0.3-0.1c-0.2-0.5-0.5-1.1-0.7-1.6l16.3-6.5 c0.1,0.2,0.2,0.5,0.4,0.7c0.2-0.4,0.4-0.9,0.6-1.4c0.1-0.1,0.5-1.4-0.1-4.7c-1.6-6-6.5-16.9-20.1-35.9 c-10.7-14.9-31.2-39-38.3-47.2c-10,7.9-20.4,15.3-31.2,22.1c-9.5,5.8-19.3,11.1-29.6,15.4c-10.3,4.2-21,7.7-32,8.9 c2.4-0.9,4.8-1.9,7.1-2.9c-2.5,0.5-5,0.9-7.5,1.2c10.3-3.9,20-8.9,29.2-14.5c9.3-5.6,18.1-11.7,26.8-18.1c4.3-3.3,8.6-6.5,12.8-10 c4.3-3.3,8.3-6.9,12.5-10.3c8.2-7.1,16.1-14.5,23.9-21.9c15.6-15.1,30.5-30.8,45-47c9.5-10.6,18.8-21.4,27.9-32.3 c-4.5,0.3-9,0.5-13.6,0.7l-30.9,1.4l2.9-1.9l-3.3,0.2L953.1,570z M327.9,408.8c-6.7-12.8-14.7-17.7-12.6-7.5 c2.1,10.2,2.8,22.5,2.8,22.5s-8.5-20.9-12.4-9.4c-3.9,11.5,3.6,38.3,3.6,38.3l-5.4,19.8c0,0-97.5-93.1-74.3-126 c23.2-32.9,140.1,4,140.1,4S333.3,394.8,327.9,408.8z M717.5,429.5c40-38.3,102.1,2.7,104.8,4.5l5.2,3.5l-0.6,1.1l1,0.7l-3.1,5.5 c-1.4,2.4-33.4,58.1-63.3,73.8c-11.2,5.9-22.2,7.8-31.7,7.8c-16.9,0-29.1-6-29.8-6.4l-2.3-1.2l-1-2.4c-0.2-0.5-1.3-3.4-2.4-8.2 C690.7,494,686.3,459.3,717.5,429.5z M836.5,547.3c-51.3-5.6-93.3,13.8-93.3,13.8s5.7-3.5,15.2-7.4c-9.8,3.1-15.6,5.7-15.6,5.7 s44.3-27.7,93.3-13.8c-3.8-0.4-7.6-0.7-11.4-0.8C828.6,545.3,832.5,546.2,836.5,547.3z M415.3,563.6c0.7-3.1,17.6-75.1,72.7-75.1 c0.2,0,0.3,0,0.5,0c54.5,0.4,73.1,45.4,73.8,47.3l1,2.4l-0.1,0.4l0.5,1.4l-0.9,2.4c-0.5,1.3-11.8,31.7-45.7,41.2 c-6.4,1.8-13.9,2.5-21.8,2.5c-32.6,0-72.8-12.1-74.9-12.7l-6-1.8l0.3-1.5l-0.8-0.2L415.3,563.6z M429.8,645.7 c-20,2.9-37.1-0.6-38.1-7.8c-1-7.2,14.4-15.3,34.4-18.1c20-2.9,37.1,0.6,38.1,7.8C465.3,634.7,449.9,642.8,429.8,645.7z M476.1,662.6c2.5-3,5.2-5.7,7.9-8.3c-2.8,2.1-5.6,4.2-8.3,6.5c33.1-38.8,85.3-40.3,85.3-40.3s-6.3,1-16.3,4 c10.1-2,16.8-2.2,16.8-2.2S515.8,629.5,476.1,662.6z M515.7,692c0.7-2.6,1.5-5.1,2.4-7.5c-1,1.9-1.9,3.8-2.8,5.8 c12.3-44.5,49.7-58,49.7-58s-4.1,2.3-10.2,7.1c6.2-3.8,10.6-5.4,10.6-5.4S534.5,651.4,515.7,692z M744.9,589.9 c-0.7,4.2-1.8,8.4-3.5,12.2c-3.3,7.7-8,14.2-13.1,20.1l-0.2,0.2l-0.4,0.4c-3.4,3.1-7.1,6-11.3,8.5c-4.2,2.4-8.8,4.4-13.7,5.5 c-9.8,2.3-20.6,1.1-29.6-3.1c-3.9-1.8-7.5-4-10.7-6.5c-0.2,0.8-0.4,1.5-0.7,2.2c-3.1,9.4-9.6,18.1-18.1,23.6 c-4.2,2.8-8.8,4.8-13.4,6.2c-4.6,1.4-9.3,2.1-13.9,2.4l-0.6,0l-0.3,0c-7.8-0.3-15.7-1.4-23.5-4.3c-3.9-1.3-7.7-3.4-11.3-5.8 c-3.6-2.4-6.8-5.6-9.3-9.1c-2.6-3.5-4.4-7.5-5.5-11.6c-0.2-0.6-0.3-1.3-0.5-1.9c-1.1-4-1.4-8.1-1.3-12c0.2-3.9,0.9-7.8,2-11.4 c-4-0.2-48-1.6-91.7,21.2c3.4-2.6,6.9-4.9,10.4-6.9c-3.6,1.6-7.2,3.3-10.8,5.1c40.6-30.8,92-21.2,92-21.2s-6.2-0.4-16.2,0.3 c8.9,0.2,15,1.1,16.3,1.4c1.1-3.7,2.8-7.2,4.9-10.4c0,0.8,0.1,1.5,0.1,2.3c0.1-0.2,0.2-0.4,0.3-0.5c0.2,7,0.9,13.6,2.3,19.7 c1.6,6.2,4.2,11.7,7.8,15.9c3.7,4.3,8.9,7.2,14.8,8.9c5.7,1.7,12,2.3,18.4,2.3c3.5-0.4,6.9-1.1,10.1-2.2c3.2-1.1,6.2-2.5,8.8-4.3 c5.3-3.6,9-8.9,11.2-15.1c1.1-3.1,1.8-6.5,2.1-9.9c0.1-0.6,0.1-1.1,0.1-1.7c-3.8-5.9-7.1-13.6-9.2-20.1c-0.6-0.1-1.2-0.2-1.7-0.3 l-22.9-5.5c-5.7-1.4-8.9-5.3-9.7-9.8c-2-6.2,1.1-14.2,9.4-18.2l32.6-16c10.4-5.1,20.8,0,22.1,8.4c0.9,2.7,0.8,5.9-0.7,9.3 l-9.3,20.8c2.2,4.8,3.9,9.8,5.1,15c0.6,2.4,1.1,4.8,1.4,7.2c0.1,1,0.3,2.1,0.4,3.2c2.1,2.4,4.4,4.6,6.9,6.5c2.7,2.2,5.6,4,8.6,5.3 c6,2.6,12.4,3.6,18.7,2.2c3.1-0.7,6.2-1.8,9.2-3.4c2.9-1.6,5.8-3.6,8.5-5.8c4.4-4.7,8.3-9.7,11-15c2.8-5.5,4.3-11.2,3.7-16.8 c-0.1-1.1-0.3-2.3-0.5-3.4c-1.1-4-2.9-7.9-5.4-11.8c-3.6-5.6-8.2-10.9-13.5-16.3c0.5,0.1,1.1,0.2,1.6,0.3c-0.7-0.7-1.3-1.4-2-2.1 c7.5,1.3,14.5,4.9,20.6,10c3,2.6,5.7,5.7,7.9,9.3c2.1,3.4,3.6,7.2,4.5,11.2c0.2,0.8,0.4,1.6,0.6,2.5 C745.6,581.2,745.6,585.6,744.9,589.9z M751.9,587.3c0,0,4.8-1.5,12.7-2.1c-8.2-0.3-13.1,0.4-13.1,0.4s38-11.7,74.6,16.6 c-2.5-1.4-5.1-2.6-7.6-3.8c2.7,1.6,5.3,3.5,8,5.5C787.1,582.6,751.9,587.3,751.9,587.3z M754,575.1c0,0,6.2-2.2,16.2-4 c-10.4,0.9-16.6,2.3-16.6,2.3s49.2-17.6,94.1,6.4c-3.2-1.1-6.3-2-9.4-2.8c3.3,1.3,6.6,2.8,9.8,4.6C799.2,565.1,754,575.1,754,575.1 z M832.2,239.4c-10.5-6.2-3.2,15.2-3.2,15.2s-7.5-9.8-12.6-18.8c-5.1-9-8-0.2-4.6,13.9c-13.2-7-69.8-16.7-69.8-16.7 s64.2-104.4,103.3-94.8c39.1,9.7,26.4,143.9,26.4,143.9l-17.1-11.4C854.5,270.7,842.7,245.6,832.2,239.4z M889.5,510.1 c-19.4,5.7-36.8,4.7-38.9-2.2c-2-6.9,12.1-17.2,31.5-22.9c19.4-5.7,36.8-4.7,38.9,2.2C923,494.2,908.9,504.4,889.5,510.1z"></path> <path class="st1" d="M932.4,1004.6c-21.4,81.5-32.6,117.6-36.4,129.2c3.5,7.7,6.6,15.4,9.3,23.4c0.9,2.6,1.7,5.2,2.5,8 c5.2-3.6,13.6-9.5,26.3-19.1c20.6-15.4,28.9-62,30.4-78.6l1.1-12.5l9.7,4.6c0.2-35.4-21-74.6-33.6-94.9 C939.1,977.2,936.1,990.5,932.4,1004.6z"></path> <path class="st1" d="M347,767.1C347,767.1,347,767.1,347,767.1C347,767.1,346.9,767.1,347,767.1C346.9,767.1,346.9,767.1,347,767.1 z"></path> <path class="st1" d="M58.4,973.2c20.1-28.8,86-111.2,174.1-93c-13.6-12.8-26.4-15.9-26.4-15.9s29.4-15.1,63.4,32.5 c-1.5-20.4-6-24.2-6-24.2s55.5,30.2,65.3,78.2c5.3-5.3,5.3-5.3,5.3-5.3l2.9,18.5c2-4.4,4.1-8.8,6.3-13.3l0.5-6.3 c4.3-56.2-8.8-98.1-39-124.4c-34.6-30.2-84.2-33.1-111.2-32.1c5.3,5,12.1,11.7,20.9,20.7l17.3,17.8l-25.1-3.5 c-75.4-10.6-115.5,30.4-132,54.3c5.5-0.7,12.3-1.3,20.5-1.7l23.5-1.1l-16.9,15.7C101.3,890.6,63.2,926.8,58.4,973.2z"></path> <path class="st1" d="M452.6,537.8c2.9,3.9,7.6,6.6,13.9,6.6c22.5,0,23.6-33.2,3.2-36.4c-23.3,11.1-34.9,41.1-39,54.2 c7.8,2.1,22,5.6,37.1,8C458.8,562.3,452.9,550.7,452.6,537.8z"></path> <path class="st2" d="M229.6,346.4c-23.2,32.9,74.3,126,74.3,126l5.4-19.8c0,0-7.5-26.8-3.6-38.3c3.9-11.5,12.4,9.4,12.4,9.4 s-0.8-12.3-2.8-22.5c-2.1-10.2,5.9-5.4,12.6,7.5c5.4-13.9,41.8-58.3,41.8-58.3S252.8,313.5,229.6,346.4z"></path> <path class="st2" d="M871.6,282.2c0,0,12.7-134.2-26.4-143.9C806.1,128.6,742,233,742,233s56.6,9.8,69.8,16.7 c-3.3-14.1-0.4-23,4.6-13.9c5.1,9,12.6,18.8,12.6,18.8s-7.2-21.4,3.2-15.2c10.5,6.2,22.3,31.3,22.3,31.3L871.6,282.2z"></path> <path class="st3" d="M328.8,950.8c-9.8-47.9-65.3-78.2-65.3-78.2s4.5,3.8,6,24.2c-34-47.6-63.4-32.5-63.4-32.5s12.8,3,26.4,15.9 c-88.2-18.1-154.1,64.2-174.1,93c-0.9,8.5-0.6,17.3,1.2,26.4c38.2-65.9,118-88.8,121.7-89.8l25.1-7l-26.7,34.7 c22.5-6.5,53.9-11.8,77.8-0.8c27.6,12.7,49,56.1,60.3,83.9c3.7-15.6,9.7-35.4,19.2-56.5l-2.9-18.5C334,945.5,334,945.5,328.8,950.8 z"></path> <path class="st3" d="M456.8,1146.3c3.5-11.6-1-27.2-1-27.2c-12.6,23.7-42.3,20.1-69.5-7c-20.8-20.8-35.1-41-40.7-49.4l-0.7,4.9 c0,0.2-2.2,24.1,14.2,50.5c20.9,33.7,63,57.1,122.1,68.1c0.2-1.8,0.5-3.5,0.8-5.2c1.1-5.6,2.6-10.9,4.3-16c0.1-0.2,0.1-0.3,0.2-0.5 c-2.6-5.8-5-11.7-7.3-17.5c-3-7.4-5.9-15-8.7-22.5c-5.5-15.1-10.7-30.2-15.7-45.5c-4.3-13.5-8.5-27-12.1-40.7l-0.1-0.2 C442.7,1038,469.8,1137.7,456.8,1146.3z"></path> <path class="st3" d="M742.9,1087.5c-12.1,25.3-60.4,34-60.4,34s12.5,5.7,38.9,1.9c0,0-21.5,11.7-43.4,10.2 c-13.6-0.9-27.7-14.8-36.4-25.1c-0.4-0.5-0.7-0.9-1.1-1.3c4,8.7,10.1,16.9,16.9,25.2c3.9,4.8,8.1,9.7,12.1,15.3 c2,2.8,3.9,5.8,5.6,9.2c0.9,1.7,1.6,3.5,2.3,5.4l0.3,0.7l0.3,0.9c0.2,0.6,0.3,1.2,0.5,1.8c0.3,1.2,0.4,2.4,0.6,3.5 c0.4,4.7-0.3,9-1.6,12.9c-0.7,2.3-1.7,4.4-2.8,6.5l47.4-1.7c-0.4-0.6-0.9-1.1-1.3-1.7c-2.2-3-4.1-6.3-5.5-10.1 c-1.4-3.7-2.3-7.9-2.2-12.5c0.1-2.3,0.5-4.7,1.3-7c0.2-0.6,0.4-1,0.5-1.5l0.6-1.3c0.4-0.9,0.8-1.8,1.2-2.6c0.9-1.6,1.7-3.3,2.7-4.7 c1-1.4,1.9-3,2.9-4.3c4-5.5,8.1-10.1,12-14.7c3.9-4.6,7.5-9,10.7-13.6c0.8-1.1,1.6-2.3,2.3-3.4l2.1-3.4c1.2-2.3,2.5-4.7,3.5-7.1 l0.8-1.8l0.6-1.8c0.4-1.2,0.9-2.4,1.1-3.7l0.8-3.7c0.1-0.3,0.1-0.7,0.2-1.1l0.2-1.2l0.4-2.3c1.2-6.2,2.6-12.1,4-18 c3-11.8,6.3-23.4,9.6-35c3.1-10.7,6.2-21.4,10.1-31.9c-0.7,1.7-2.9,7.2-6,14.7C766.4,1033.6,751.3,1069.9,742.9,1087.5z"></path> <path class="st4" d="M513.1,794.9C513.1,794.9,513.1,794.9,513.1,794.9"></path> <path class="st3" d="M417.5,825.6c0.5-20.6,95.6-30.7,95.6-30.7c-0.3,0-4.4,0-55.4,0c31.9-2.1,68.3-14.2,87.1-21.2 c-12.6,2.7-25.3,4.6-38.1,6.1c-24.9,3.1-50,5-75.3,4.7c-10.3-0.2-20.7-0.6-31.1-1.6c-5.9,9.8-11.5,19.7-15.4,27.3l11.5,5.9 c-4.4,14.8-8.9,31.8-11.4,43.5c2.1-1.7,4.4-3.5,6.5-5.3l14.8-12.8v19.1c0,0.7-0.2,12.5-9.2,32.7c-2.2,15.3-6.9,35.7-16.3,61.2 C408.4,921.7,417,846.2,417.5,825.6z"></path> <ellipse transform="matrix(0.99 -0.1414 0.1414 0.99 -85.1698 66.8782)" class="st3" cx="428" cy="632.7" rx="36.7" ry="13.1"></ellipse> <path class="st3" d="M882.1,485c-19.4,5.7-33.5,15.9-31.5,22.9c2,6.9,19.4,7.9,38.9,2.2s33.5-15.9,31.5-22.9 C919,480.3,901.6,479.3,882.1,485z"></path> <path d="M488.9,490.2c-0.2,0-0.3,0-0.5,0c-55,0-72,72.1-72.7,75.1l-1,4.6l-0.3,1.5l6,1.8c2.1,0.6,42.3,12.7,74.9,12.7 c8,0,15.5-0.7,21.8-2.5c33.9-9.5,45.2-40,45.7-41.2l0.9-2.4l-0.5-1.4l-0.4-1C562,535.6,543.4,490.6,488.9,490.2z M549,540.1 c-1.9,3.9-6.3,11.9-14.5,18.9c3.8-6.5,6-14.1,6-22.2c0-3.8-0.5-7.4-1.4-10.9C544.3,531.7,547.5,537.1,549,540.1z M469.8,508 c20.4,3.2,19.3,36.4-3.2,36.4c-6.4,0-11-2.7-13.9-6.6c0.3,12.9,6.2,24.4,15.3,32.3c-15.1-2.4-29.3-5.9-37.1-8 C434.8,549.1,446.5,519,469.8,508z"></path> <path d="M717.9,431.2c-29.9,28.7-27.1,61.8-23.6,76.9c1.1,4.8,2.2,7.7,2.4,8.2l1,2.4l2.3,1.2c0.8,0.4,13,6.4,29.8,6.4 c9.5,0,20.5-1.9,31.7-7.8c29.9-15.7,61.9-71.4,63.3-73.8l3.1-5.5l-1-0.7l-4.2-2.8C820.1,433.9,757.9,392.9,717.9,431.2z M809.6,443.6c-4.3,6.9-12.1,19.2-21.5,31.3c1.2-12-2.4-24.4-11.1-34c0.5,4.8-1,10-5.6,14.3c-16.3,15.4-39.9-8-27.4-24.2 C768.5,423.1,797.6,436.9,809.6,443.6z M705.8,491.7c1.7,3.1,3.9,6.1,6.5,8.9c5.6,5.9,12.5,10,19.8,12.1 c-10.8,0.5-19.6-2.3-23.7-3.9C707.5,505.5,706.1,499.4,705.8,491.7z"></path> <path d="M744.2,574.4c-0.9-3.4-2.3-6.6-4.1-9.5c-2.2-3.6-4.9-6.7-7.9-9.3c-5.6-4.8-12.1-8.2-19-9.7c-0.5-0.1-1.1-0.2-1.6-0.3 c5.3,5.4,9.9,10.7,13.5,16.3c2.5,3.9,4.3,7.9,5.4,11.8c0.5,1.7,0.8,3.4,0.9,5.1c0.6,5.7-0.9,11.4-3.7,16.8c-2.7,5.3-6.6,10.3-11,15 c-2.7,2.2-5.6,4.2-8.5,5.8c-3,1.6-6.1,2.8-9.2,3.4c-6.3,1.4-12.6,0.4-18.7-2.2c-3-1.3-5.9-3.2-8.6-5.3c-2.6-2-5-4.3-7.2-6.8 c0-0.5-0.1-0.9-0.1-1.4c-0.1-1.1-0.2-2.1-0.4-3.2c-0.3-2.4-0.8-4.9-1.4-7.2c-1.2-5.1-3-10-5.2-14.6l0.2-0.4l9.3-20.8 c1.5-3.4,1.6-6.6,0.7-9.3c-2.4-7.3-12-11.4-21.6-6.6l-32.6,16c-7.5,3.7-10.8,10.6-9.8,16.5c0.7,4.5,4,8.4,9.7,9.8l22.9,5.5 c0.6,0.1,1.1,0.2,1.7,0.3c2.1,6.5,5.4,14.2,9.2,20.1c0.2,0.3,0.3,0.5,0.5,0.8c0,0.9-0.1,1.8-0.2,2.7c-0.3,3.5-1,6.8-2.1,9.9 c-2.2,6.2-5.9,11.5-11.2,15.1c-2.6,1.8-5.6,3.2-8.8,4.3c-3.2,1.1-6.6,1.7-10.1,2.2c-6.4,0-12.7-0.6-18.4-2.3 c-5.9-1.7-11.1-4.6-14.8-8.9c-3.8-4.3-6.4-9.9-7.9-16.3c-0.1-0.4-0.2-0.9-0.3-1.3c-1.4-6.1-2-12.7-2.3-19.7 c-0.1,0.2-0.2,0.4-0.3,0.5c-4,6.2-6.1,13.6-6.5,21.3c-0.1,3.4,0.1,6.8,0.8,10.3c0.1,0.6,0.3,1.3,0.5,1.9c1.1,4.1,2.9,8,5.5,11.6 c2.5,3.5,5.8,6.7,9.3,9.1c3.5,2.4,7.3,4.5,11.3,5.8c7.8,2.9,15.8,4,23.5,4.3l0.3,0l0.6,0c4.6-0.3,9.3-1,13.9-2.4 c4.6-1.3,9.2-3.4,13.4-6.2c8.5-5.5,15-14.2,18.1-23.6c0.3-0.7,0.5-1.5,0.7-2.2c3.3,2.5,6.8,4.7,10.7,6.5c8.9,4.2,19.7,5.4,29.6,3.1 c4.9-1.1,9.5-3.1,13.7-5.5c4.2-2.4,7.9-5.3,11.3-8.5l0.4-0.4l0.2-0.2c5.1-5.9,9.8-12.4,13.1-20.1c1.7-3.8,2.9-7.9,3.5-12.2 c0.7-4.3,0.6-8.7-0.2-13C744.6,576,744.4,575.2,744.2,574.4z"></path> <path d="M566.2,605.3c-1.4-0.2-7.4-1.2-16.3-1.4c-16.1-0.3-41.4,2-65,15.7c-3.5,2-7,4.3-10.4,6.9 C518.2,603.7,562.2,605.1,566.2,605.3c0.2,0,0.3,0.1,0.3,0.1S566.4,605.3,566.2,605.3z"></path> <path d="M544.7,624.5c-16,3.2-40.5,11-60.7,29.8c-2.7,2.5-5.4,5.3-7.9,8.3c39.6-33.1,85.3-40.3,85.3-40.3S554.8,622.5,544.7,624.5z "></path> <path d="M518.2,684.5c-0.9,2.4-1.7,4.9-2.4,7.5c18.8-40.6,49.7-58,49.7-58s-4.4,1.6-10.6,5.4C543.9,646.2,527.2,660,518.2,684.5z"></path> <path d="M758.3,553.6c-9.5,3.9-15.2,7.4-15.2,7.4s42-19.4,93.3-13.8c-4-1.1-7.9-2-11.8-2.6C797.7,540.4,773.2,547.5,758.3,553.6z"></path> <path d="M770.3,571.1c-10,1.8-16.2,4-16.2,4s45.2-10,94.1,6.4c-3.3-1.7-6.5-3.3-9.8-4.6C812.4,566.4,786.4,568.2,770.3,571.1z"></path> <path d="M764.6,585.2c-7.8,0.6-12.7,2.1-12.7,2.1s35.2-4.7,74.6,16.6c-2.7-2.1-5.3-3.9-8-5.5C797.6,585.3,777.2,584.2,764.6,585.2z "></path> <path d="M987.6,433.9l5.8,8.7c-7.9-11.1-15-23.1-21.4-35.4c-7.1-13.6-13.4-27.7-19-42c-5.3-13.6-9.9-27.5-13.9-41.5 c3-9.6,5.4-19.4,7.3-29.3c2-10.8,3.2-21.6,3.9-32.5c0.7-10.9,0.6-21.8,0.1-32.7c-0.6-10.9-1.7-21.7-3.5-32.5 c-3.6-21.5-9.2-42.7-17.8-62.9c-4.3-10.1-9.3-20-15.5-29.4c-1.5-2.3-3.1-4.7-4.9-6.9c-1.6-2.3-3.5-4.5-5.4-6.7 c-3.8-4.3-8-8.5-13-12.1c-4.9-3.6-10.7-6.7-17.2-8.3c-6.3-1.5-12.4-1.6-18.4-1.3c-11.8,1-22.8,4-33.2,7.9 c-20.8,7.9-39.7,19-57.4,31.6c-17.7,12.6-34.1,27-49,42.9c-13.3,14.4-25.4,30.1-35,47.7c-8.3-1.5-16.4-1.9-24.5-1.9 c-10.2,0-20.2,1.1-30.2,2.5c-9.9,1.4-19.7,3.3-29.4,5.5c-0.8,0.2-1.6,0.4-2.4,0.6c0.3-0.6,0.6-1.1,0.9-1.7c1-2.1,2-4.4,2.5-7.3 c0.1-0.8,0.2-1.5,0.3-2.3c0-0.8,0-1.7,0-2.6c-0.1-0.9-0.2-1.8-0.5-2.7c-0.3-0.9-0.6-1.9-1-2.8c-0.9-1.8-2.1-3.4-3.3-4.6 c-0.6-0.6-1.3-1.2-2-1.7c-0.7-0.4-1.3-0.9-2-1.3l-0.8-0.5l-0.7-0.2c-1.7-0.4-3.7-0.9-5.3-0.8c-0.8,0-1.7-0.1-2.4,0l-2.2,0.3 c-0.8,0.1-1.4,0.3-2,0.4l-1.9,0.5c-1.2,0.4-2.3,0.8-3.5,1.3c-4.4,1.9-8.2,4.1-11.7,6.5c-7.1,4.8-13.4,10.1-19.4,15.5 c-6,5.5-11.7,11.1-17.3,16.9c-5,5.2-9.7,10.4-14.5,15.8c-0.3,0.1-0.7,0.2-1,0.3l-3.5,1.1c-2.3,0.8-4.5,1.5-6.8,2.3 c-4.5,1.6-8.8,3.4-13.2,5.2c-8.7,3.6-17.1,7.6-25.4,11.9c-8.3,4.2-16.5,8.7-24.5,13.4c-4,2.3-8,4.8-12,7.2l-8.2,5.2 c-23.8-8.4-48.3-13.8-73.1-17.1c-26.2-3.4-52.7-4.6-79.3-2.1c-13.3,1.3-26.6,3.4-39.7,7.3c-3.3,1-6.5,2-9.8,3.3 c-3.3,1.1-6.4,2.7-9.6,4.1c-6.3,3.2-12.5,6.8-18.1,11.6c-5.6,4.8-10.5,10.7-14.1,17.5c-0.8,1.7-1.7,3.5-2.4,5.2l-1.8,5.2 c-0.6,1.7-0.9,3.5-1.4,5.3c-0.5,1.8-0.7,3.5-1,5.3c-0.7,3.5-0.8,7.1-1.1,10.6c0,3.5-0.2,7,0,10.4c0.2,6.9,1.1,13.7,2.2,20.4 c4.9,26.7,14.6,51.6,26.5,75.3c11.9,23.6,26.1,46,42.8,66.7c8.4,10.3,17.4,20.2,27.5,29.2l1.9,1.7l1.7,1.6l3.4,3.1l3.4,3.1 c1.2,1,2.1,2.2,3.2,3.3l3.1,3.4c1,1.1,2.1,2.2,3,3.4l5.6,7.2c7,9.9,12.8,20.6,16.4,32c1.8,5.7,3.2,11.5,4,17.4 c0.3,2.9,0.6,5.9,0.7,8.8c0.1,1.5,0,2.9,0,4.3l-0.1,2.1l-0.1,1l0,0.5l0,0.3l1.2,0.2c-0.4,0.6-0.7,1.2-1.1,1.8 c-4.8,7.6-10.2,14.9-15.8,22c-1.4,1.8-2.8,3.5-4.3,5.3c-1.5,1.7-2.9,3.5-4.4,5.1c-3,3.4-6.1,6.8-9.1,9.8l-10.9,10.9l14.8,4.1 l9.4,2.6c-5.1,1.6-10.1,3.2-15.2,4.8l-20.6,6.3l18.8,10.2c10.2,5.5,20.7,9.9,31.3,13.4c10.7,3.5,21.5,6.2,32.3,8.6 c10.8,2.3,21.7,4.1,32.6,5.6c0.8,0.1,1.6,0.2,2.4,0.3c-1.8,0.7-3.6,1.4-5.5,2.1c-5.5,2-11.1,3.6-16.4,4.4l-0.5,0.1l-0.4,0.1 c-0.5,0.1-1.1,0.2-1.6,0.4c-2.2,0.7-4.4,2.4-5.6,4.5c-1.2,2.1-1.6,4.3-1.4,6.6c0.3,2.2,1.4,4.6,3.2,6.2c0.4,0.4,0.9,0.7,1.4,1.1 c0.5,0.3,0.9,0.5,1.4,0.8l0.6,0.2l1.2,0.5l2.3,0.9c1.6,0.6,3.1,1.3,4.7,1.7l4.7,1.5c8.6,2.6,17.3,4.5,26,6c-1.8,3-3.6,6.2-5.5,9.5 c-15,26.6-16.1,32.9-11.7,38.3c2.3,2.7,5.7,4,9.3,3.4c-11.8,43.3-8.4,46.7-5.3,49.7c2.4,2.4,5.8,3.3,9.2,2.5 c1.6-0.4,3.4-1.1,5.3-2.2c-3.7,9.2-9.7,21.1-19.5,35.3c-0.4,0.6-0.8,1.1-1.1,1.7c-1.1-48.5-16.4-85.8-45.6-111.3 c-56-48.7-141.8-35.1-145.5-34.5l-22.2,3.6l18.7,11.8c0.2,0.2,4.6,3.2,17.8,15.9c-48.2-0.8-81.1,18.3-101,35.9 c-4.4,3.9-8.4,7.9-11.9,11.8c-0.1,0.1-0.1,0.1-0.2,0.2c-10.3,9.8-34.5,44.8-41.5,71.2c17.1-20.9,43.9-28.9,43.9-28.9 c-5.8,7.3-12.5,16.9-18.4,28c-19.1,36-21.3,71.9-6.4,104l8.8,18.9l7.6-19.4c18.4-47.2,62.3-74.9,91.6-88.7c0,0-26,33.8-36.6,38.9 c19.4-1.3,33.4-9.7,45.5-16.3c20.4-8,59.1-18.8,83-7.8c28,12.9,52.6,74.7,59.8,97.5c0.6,1.8,1.7,3.3,3.2,4.3 c0.4,8.7,3,14.9,8.1,18.7c2,1.5,4.2,2.5,6.4,3c0.6,11,3.7,29.8,16,50.2c16.8,27.8,55,63.7,140.9,78.2c0.1,0.2,0.2,0.3,0.4,0.5 c0.6,0.8,1.2,1.5,1.8,2.2c1.2,1.3,2.4,2.5,3.6,3.6c2.5,2.1,5,3.9,7.7,5.6c5.3,3.2,11,5.7,17.4,7.3c3.2,0.7,6.6,1.2,10.3,1.2 c3.6-0.1,7.6-0.7,11.4-2.4c2.6-1.2,5.1-2.9,7.1-4.8c3.6,2.3,7.1,3.9,10.7,5.2c7.3,2.6,14.7,4,22.3,4.6c7.6,0.5,15.4,0.2,23.3-1.9 c3.9-1.1,7.9-2.6,11.7-4.9c1.7-1,3.4-2.3,4.9-3.6c5.9,1.9,12.4,2.3,18.2,1.2c8.1-1.4,15.4-4.7,21.6-9c1.2-0.8,2.4-1.7,3.5-2.6 l82.1-3c4.8,2.4,10.1,4.3,15.9,5.1c5.7,0.8,11.8,0.4,17.5-1.3c1.6,1.4,3.3,2.6,5.1,3.6c3.8,2.2,7.7,3.6,11.6,4.6 c7.8,2,15.5,2.3,22.9,1.8c7.5-0.5,14.8-1.9,22-4.4c3.6-1.3,7.2-2.8,10.9-5c0,0,0,0,0.1,0c2.1,1.9,4.5,3.6,7.2,4.7 c3.7,1.6,7.5,2.2,11,2.3c3.5,0.1,6.9-0.3,10-1c6.3-1.4,11.9-3.7,17.1-6.7c2.6-1.5,5.2-3.2,7.6-5.2c1.2-1,2.4-2.1,3.6-3.3 c0.6-0.6,1.2-1.3,1.8-2l0.9-1.1c0.2-0.2,0.3-0.4,0.4-0.6l0.5-0.9c1.5-2.5,1.9-4.6,2.2-6.6c0.1-0.9,0.2-1.8,0.3-2.7 c0-0.1,0-0.3,0-0.4c3.9-2.4,13.5-8.8,34.3-24.3c16.7-12.4,26.1-36.9,31.3-57.3l3.4,12.6l9.2-28.2c19.9-61.5-39.6-142.3-42.1-145.7 l-0.9,0.6c6.5-39.9,7.1-69.2,6.7-86.1c2.2-0.2,4.4-1,6.3-2.4c6.8-4.7,6.1-13.5-2.9-39.4c-1.1-3-2.2-6-3.2-8.9 c4-2.2,7.3-6.5,10-12.8c3.1-7.3,4.1-21.3-22.4-58.3c-11.2-15.6-32-40.1-39.3-48.6c2.8-2.3,5.6-4.7,8.3-7.1 c16.6-14.6,32.5-30,47.6-46.1c7.6-8,15-16.2,22.2-24.6c3-3.5,5.9-6.9,8.8-10.4c11-12.5,21.9-27.4,25-34.2c-5.2,3-14.7,4.8-22.3,5.7 c0,0,0.1,0,0.1,0l0.3-0.1l0.1,0l0,0l-0.1,0l-0.2,0c-0.2,0-0.3,0.1-0.7,0.1l-2,0.2l-1.8,0.2c3.9-3.1,7.8-6.4,11.5-9.8 c5.5-5,10.9-10.1,16-15.9c5-5.8,9.8-11.9,13.7-19.1l7.6-14.1l-16.1,1.7c-4.1,0.4-8.2,0.7-12.5,0.6c-3.5-0.1-7.1-0.2-10.6-0.6 c1.8-0.8,3.6-1.6,5.4-2.5c5.3-2.5,10.6-5.1,15.9-8.2c1.8-1,3.6-2.1,5.4-3.3c8.4-4.1,17.6-9.3,26.5-15.8 C1017.8,478.5,987.6,433.9,987.6,433.9z M347,767.1C346.9,767.1,346.9,767.1,347,767.1C346.9,767.1,347,767.1,347,767.1 C347,767.1,347,767.1,347,767.1z M95.3,875.5c-8.3,0.4-15,1-20.5,1.7c16.6-23.9,56.7-64.9,132-54.3l25.1,3.5l-17.3-17.8 c-8.8-9-15.6-15.7-20.9-20.7c27.1-1,76.7,1.9,111.2,32.1c30.1,26.3,43.2,68.1,39,124.4l-0.5,6.3c-2.3,4.5-4.4,8.9-6.3,13.3 c-9.5,21.2-15.5,40.9-19.2,56.5c-11.3-27.8-32.6-71.1-60.3-83.9c-23.9-11-55.3-5.8-77.8,0.8l26.7-34.7l-25.1,7 c-3.7,1-83.5,23.9-121.7,89.8c-1.8-9-2-17.9-1.2-26.4c4.8-46.4,43-82.7,43.5-83.1l16.9-15.7L95.3,875.5z M975.2,1059.7l-9.7-4.6 l-1.1,12.5c-1.5,16.6-9.8,63.1-30.4,78.6c-12.8,9.6-21.1,15.5-26.3,19.1c-0.8-2.7-1.6-5.3-2.5-8c-2.8-8.1-5.9-15.7-9.3-23.4 c3.8-11.6,15.1-47.6,36.4-129.2c3.7-14.1,6.7-27.4,9.2-39.9C954.3,985,975.4,1024.2,975.2,1059.7z M1001.1,531.8 c-4.4,5.1-9.4,9.8-14.6,14.5c-5.1,4.6-10.6,9-16.1,13.3c-5.5,4.2-11.3,8.4-16.9,12.1l-23,15.2l-2.9,1.9l30.9-1.4 c4.5-0.2,9-0.5,13.6-0.7c0.7,0,1.3-0.1,2-0.1c-9.6,11.5-19.4,22.9-29.4,34.1c-14.5,16.2-29.4,31.9-45,47 c-7.8,7.5-15.7,14.9-23.9,21.9c-4.1,3.5-8.2,7-12.5,10.3c-4.2,3.4-8.5,6.7-12.8,10c-8.7,6.4-17.5,12.6-26.8,18.1 c-7.1,4.3-14.4,8.2-22.1,11.6c-2.3,1-4.7,2-7.1,2.9c11-1.2,21.7-4.6,32-8.9c10.3-4.3,20.1-9.6,29.6-15.4 c10.8-6.8,21.2-14.3,31.2-22.1c7.1,8.3,27.6,32.3,38.3,47.2c13.6,19,18.4,29.9,20.1,35.9c1.2,4.6,0.6,6.3,0.5,6.4 c-0.2,0.5-0.4,1-0.6,1.4c-0.1-0.2-0.2-0.5-0.4-0.7l-16.1,6.4l-0.3,0.1c6.3,15.2,12.8,33.1,15.5,43.4c0.2,0.6,0.3,1.2,0.4,1.7 l-11,3.4c0.1,0.6,7.3,60-18.7,159.2c-18.8,71.8-29.9,108.4-34.7,123.5c-0.3-0.1-0.6-0.2-0.9-0.4c-6.5-2.8-13.8-4.2-19.7-0.8 c26.3,13.5,30.8,52.3,31.5,61.6c0.1,1.3,0.1,2,0.1,2c-0.6,0.6-1.3,1.3-2.1,1.9c-1.6,1.3-3.4,2.5-5.3,3.6c-3.8,2.2-8,3.9-11.9,4.7 c-4,0.9-7.7,0.8-9.9-0.2c-1.1-0.5-2-1.1-2.8-2.1c-0.8-1-1.5-2.3-2-4l-0.8,0.1l-0.1-1.8l-0.9-19.9c-0.2-4.7-4.2-8.3-8.9-8.1 c-4.7,0.2-8.3,4.2-8.1,8.9l0.9,20.3l0.1,2l-0.3,0.3c-0.4,0.3-0.8,0.6-1.3,0.9c-2,1.2-4.5,2.4-7.2,3.3c-5.4,1.8-11.4,3-17.3,3.4 c-5.9,0.4-11.9,0.1-17.1-1.2c-4.3-1.1-7.9-2.9-10.3-5.2c0.1-0.3,0.2-0.7,0.3-1.1c1.5-5.6,3.9-14.2,6-22c1.3-4.5-1.4-9.2-5.9-10.5 c-4.5-1.3-9.2,1.4-10.5,5.9c-3.1,11.3-5,18.2-6.2,22.7c-0.2,0.7-0.4,1.4-0.5,1.9c-2.7,0.5-5.6,0.5-8.6-0.1c-4.5-0.8-9-3-13.1-5.7 c-4.1-2.8-7.7-6.4-10.4-10.3c-2-2.9-3.4-6.1-3.8-8.7c-0.1-0.8-0.2-1.6-0.1-2.2c0-0.7,0.2-1.3,0.3-1.8c0-0.1,0.2-0.4,0.3-0.6 l0.3-0.7c0.2-0.5,0.4-1,0.7-1.5c0.6-1,1.1-2.1,1.8-3.1c0.8-1.1,1.4-2.1,2.2-3.2c3.2-4.4,7-8.9,11-13.6c4-4.7,8-9.8,11.7-15.2 c3.8-5.4,7.1-11.4,9.5-17.8l0.9-2.4l0.7-2.5c0.5-1.7,1.1-3.3,1.4-5l1-5.1l0.7-4.3c0.9-5.6,2.1-11.4,3.3-17.2 c2.3-11.6,5-23.3,7.7-34.9c5.7-23.3,11.2-46.6,11.1-71.5c-0.2,0.2-0.3,0.5-0.4,0.7c-3.3,5.1-6,10.3-8.6,15.6 c-2.7,5.5-5,11.1-7.2,16.8c-0.3,0.9-0.7,1.7-1,2.6c-3.9,10.5-7,21.2-10.1,31.9c-3.3,11.6-6.6,23.2-9.6,35c-1.5,5.9-2.8,11.8-4,18 l-0.4,2.3l-0.2,1.2c-0.1,0.4-0.1,0.8-0.2,1.1l-0.8,3.7c-0.2,1.2-0.8,2.4-1.1,3.7l-0.6,1.8l-0.8,1.8c-0.9,2.4-2.2,4.7-3.5,7.1 l-2.1,3.4c-0.7,1.2-1.5,2.3-2.3,3.4c-3.2,4.6-6.8,9-10.7,13.6c-3.9,4.6-8.1,9.3-12,14.7c-1,1.3-1.9,2.9-2.9,4.3 c-0.9,1.5-1.8,3.2-2.7,4.7c-0.4,0.8-0.8,1.8-1.2,2.6l-0.6,1.3c-0.2,0.5-0.4,0.8-0.5,1.5c-0.7,2.3-1.2,4.7-1.3,7 c-0.2,4.6,0.8,8.8,2.2,12.5c1.4,3.7,3.3,7.1,5.5,10.1c0.4,0.6,0.9,1.1,1.3,1.7l-47.4,1.7c1.1-2,2-4.2,2.8-6.5 c1.3-3.9,2-8.3,1.6-12.9c-0.1-1.2-0.3-2.4-0.6-3.5c-0.1-0.6-0.3-1.2-0.5-1.8l-0.3-0.9l-0.3-0.7c-0.7-1.9-1.5-3.7-2.3-5.4 c-1.7-3.4-3.7-6.4-5.6-9.2c-4-5.6-8.2-10.5-12.1-15.3c-6.9-8.3-12.9-16.5-16.9-25.2c-0.6-1.2-1.1-2.5-1.6-3.7 c-1-2.5-1.8-5.1-2.4-7.6c-0.1-0.3-0.1-0.5-0.2-0.8c-0.2-1-0.4-2-0.6-3.2l-0.9-4.8c-1.2-6.3-2.6-12.5-4-18.6c0-0.1-0.1-0.3-0.1-0.4 c-3-12.1-6.2-24-9.5-35.9c-3.3-12-6.7-24-11.1-35.7c-2.2-5.9-4.6-11.7-7.2-17.4c-2.7-5.7-5.5-11.4-9-16.9 c-0.1,25.7,5.4,49.8,11,73.9c2.7,12.1,5.4,24.1,7.7,36.2c1.2,6,2.4,12,3.3,17.9l0.7,4.4c0.3,1.6,0.5,3.5,0.9,5.2 c0.1,0.6,0.3,1.2,0.4,1.9c0.6,2.8,1.5,5.6,2.4,8.4c2.3,6.7,5.6,12.9,9.3,18.6c3.7,5.7,7.8,11,11.8,16c4,5,7.9,9.8,11.2,14.4 c1.6,2.3,3.1,4.6,4.2,6.8c0.6,1.1,1,2.2,1.4,3.2l0.1,0.3l0.1,0.1l0.1,0.2c0.1,0.1,0.1,0.3,0.1,0.5c0.1,0.3,0.1,0.7,0.2,1 c0.4,3-1.1,7.5-3.6,11.6c-2.6,4.1-6.2,8-10.3,11.1c-4.1,3.1-8.8,5.4-13.3,6.3c-3.5,0.8-6.9,0.7-10.1-0.2l-0.4-1.7l-6.1-26.6 c-1.1-4.6-5.6-7.4-10.2-6.4c-4.6,1.1-7.4,5.6-6.4,10.2l6.2,26.9l0.4,1.8c-2.4,2.1-5.7,3.7-9.5,4.7c-5.2,1.4-11.2,1.7-17.2,1.3 c-6-0.4-12-1.7-17.4-3.6c-2.7-1-5.3-2.2-7.2-3.4c-1-0.6-1.7-1.3-2.1-1.7c-0.2-0.2-0.2-0.3-0.2-0.2c0,0.1,0.2,0.4,0.2,0.9l-0.3,0 c0-0.7,0-1.5,0-2.2c0.1-9.4,0.5-18.5,0.9-20.6c1.2-4.5-1.5-9.2-6.1-10.4c-4.5-1.2-9.2,1.5-10.4,6.1c-1,3.7-1.3,14.6-1.5,23.6 c0,0.6,0,1.1,0,1.7l-0.1,0c-0.5,1.8-1.3,3.3-2.1,4.3c-0.8,1.1-1.7,1.7-2.8,2.3c-2.2,1-6,1.2-10.1,0.2c-4.1-1-8.3-2.8-12.1-5.1 c-1.9-1.2-3.7-2.5-5.3-3.8c-0.1-0.1-0.2-0.1-0.2-0.2l0.4-1l0.1-0.2c0,0-4.2-54,39.3-81.6c-22.8-6.4-37.2,8.6-42.8,18.8 c-1.6,3-2.5,5.6-2.7,7.1c-2.2-7.4-4.6-14.7-7-22c-5.1-15.2-10.5-30.3-16.2-45.4c-5.7-15-11.6-30-18.2-44.7 c-3.3-7.4-6.8-14.7-10.5-21.9c-3.7-7.2-7.6-14.4-12-21.4c0.9,8.1,2.4,16.1,3.9,24c1.1,5.5,2.3,10.9,3.6,16.3 c0.6,2.4,1.2,4.8,1.8,7.2c0.5,1.8,0.9,3.7,1.4,5.5c3.6,13.7,7.8,27.2,12.1,40.7c4.9,15.3,10.1,30.4,15.7,45.5 c2.8,7.5,5.6,15,8.7,22.5c2.3,5.9,4.8,11.7,7.3,17.5c-0.1,0.2-0.1,0.3-0.2,0.5c-1.7,5.2-3.2,10.4-4.3,16c-0.3,1.7-0.6,3.4-0.8,5.2 c-59.1-11-101.3-34.5-122.1-68.1c-16.4-26.4-14.2-50.3-14.2-50.5l0.7-4.9l1.4-10.7l-0.7,0.3l-13.7,6.6c-0.3,0.1-0.7,0.2-1,0.2 c-0.2-0.3-0.6-1.2-0.9-2.9c-0.5-2.6-0.6-7.3,0.8-15.2c3.1-17.8,10.5-48.2,26.8-81c1.2-1.2,2-2.7,2.3-4.5c5-9.6,10.8-19.4,17.5-29.1 c8.8-12.7,14.9-23.9,19-33.2c9-20.2,9.2-32,9.2-32.7v-19.1l-14.8,12.8c-2.1,1.8-4.3,3.6-6.5,5.3c2.5-11.7,7-28.6,11.4-43.5 l-11.5-5.9c3.9-7.6,9.5-17.5,15.4-27.3c10.4,1,20.8,1.4,31.1,1.6c25.3,0.2,50.4-1.7,75.3-4.7c12.8-1.5,25.5-3.5,38.1-6.1 c11.9-2.5,23.7-5.7,35.3-10c-1.8,0-3.6,0-5.4,0c-10.8,0.1-21.4,0.7-32,1.3c-12.4,0.7-24.7,1.8-37,2.5c-24.7,1.4-49.3,2.1-73.8,1.2 c-12.2-0.4-24.4-1.2-36.4-2.8c-0.4,0-0.7-0.1-1.1-0.2c0,0,0,0,0,0l-0.1,0c0,0,0,0,0,0c-0.1,0-0.1,0-0.2,0l0.1,0 c-0.6-0.1-3.3-1.1-3.6-0.5c-7.1-1-14.1-2.4-20.9-4.1c0.9-0.3,1.8-0.7,2.7-1c4.5-1.7,8.8-3.6,13.1-5.6c2.9-1.4,5.8-2.8,8.7-4.3 c2.9-1.5,5.6-3,8.6-4.7l24.5-14.3l-3.1-0.2l-25.4-1.6c-5.1-0.3-10.5-0.8-15.7-1.4c-5.3-0.6-10.5-1.2-15.8-2 c-10.5-1.5-21-3.3-31.3-5.6c-10.3-2.3-20.5-5-30.4-8.3c-2.5-0.9-5-1.8-7.4-2.7l2.3-0.8l7.9-2.6c3.7-1.2,7.2-2.4,11-3.8l26.3-9.6 l-2.9-0.8l-24-6.7l-23.6-6.6c0.4-0.4,0.7-0.9,1.1-1.3c1.1-1.3,2.2-2.6,3.3-3.9c1.6-1.8,3.1-3.7,4.6-5.6 c18.2-23,29.4-51.5,21.9-81.3c0,0,0,0,0,0c-1,6.3-2.8,12.7-5.1,18.9c-0.1-0.6-0.3-1.2-0.4-1.8c-0.2-0.8-0.4-1.7-0.6-2.5 c-0.7-2.7-1.4-5.4-2.2-8c-4.2-13.3-10.8-25.6-18.8-36.8l-6.3-8.1c-1-1.4-2.2-2.6-3.4-3.8l-3.5-3.8c-1.2-1.2-2.3-2.6-3.5-3.7 l-3.7-3.5l-3.7-3.5l-1.9-1.7l-1.7-1.5c-9.2-8.2-17.7-17.4-25.6-27.2c-15.8-19.6-29.4-41.1-40.8-63.6c-9.9-19.8-18.2-40.5-23.1-61.7 c-0.7-3-1.3-5.9-1.8-8.9c-1-6-1.8-12.1-2-18.1c-0.2-3,0-6,0-8.9c0.3-2.9,0.4-5.9,0.9-8.7c0.2-1.4,0.4-2.9,0.8-4.2 c0.4-1.4,0.6-2.8,1.1-4.1l1.4-3.9c0.5-1.2,1.1-2.4,1.7-3.6c2.5-4.6,5.9-8.8,10.1-12.5c4.2-3.6,9.2-6.6,14.5-9.3 c2.7-1.2,5.4-2.5,8.2-3.5c2.8-1.1,5.7-2,8.6-2.9c11.7-3.5,24-5.5,36.4-6.7c24.9-2.3,50.4-1.2,75.5,2.1c25.1,3.4,49.9,8.9,73.4,17.6 l4,1.5l3.6-2.3l11.4-7.2c3.9-2.3,7.7-4.7,11.6-6.9c7.8-4.5,15.7-8.9,23.7-12.9c8-4,16.1-7.9,24.3-11.3c4.1-1.7,8.2-3.4,12.4-4.9 c2.1-0.8,4.1-1.5,6.2-2.2l3.1-1c1-0.3,2.1-0.6,2.9-0.8l2.7-0.7l1.8-2.1c4.9-5.7,10.2-11.5,15.5-17.1c5.3-5.6,10.8-11,16.5-16.1 c5.6-5.1,11.5-10,17.4-14c3-2,6-3.8,8.8-5l2-0.7l0.8-0.2l0.1,0c0.3-0.1,0.6-0.2,0.8-0.2c0.1,0,0.2,0,0.2,0 c-0.2,0.6-0.5,1.4-0.9,2.3c-0.6,1.1-1.3,2.3-2.1,3.6c-8.4,7.9-23.6,22.9-28.5,33.1c-0.3,0.7-0.6,1.4-0.8,2 c17.8-3.9,23.1-6.1,24.3-6.7l0.2,0.4c4.3-1.4,9-2.7,13.6-3.9c4.6-1.2,9.2-2.4,13.9-3.4c9.3-2.1,18.6-3.9,28-5.2 c9.3-1.3,18.7-2.3,27.9-2.3c9.2,0,18.3,0.6,26.5,2.8l6.8,1.8l3.1-6.3c8.9-18,21.4-34.5,35.3-49.6c14-15,29.6-28.7,46.4-40.7 c16.8-11.9,34.7-22.3,53.5-29.5c9.4-3.6,19.1-6.1,28.4-6.9c4.6-0.3,9.2-0.1,13.2,0.8c3.9,0.9,7.5,2.9,11.2,5.5 c7.3,5.3,13.5,13.1,19,21.3c5.4,8.3,10.1,17.4,14,26.7c5.2,12.4,9.3,25.3,12.5,38.5c1.6,6.8,3,13.6,4.1,20.5 c1.7,10.1,2.7,20.4,3.3,30.6c0.5,10.3,0.6,20.5-0.1,30.8c-0.6,10.2-1.8,20.4-3.6,30.5c-1.9,10-4.4,19.9-7.5,29.6l-0.8,2.4l0,0.1 l0.7,2.4c4.2,15.4,9.3,30.6,15.1,45.5c5.8,14.9,12.4,29.5,19.8,43.7c7.5,14.2,15.7,28,25.4,41.1c4.9,6.5,10.1,12.9,16.1,18.8 c3,3,6.3,5.8,9.9,8.5c0.2,0.2,0.5,0.3,0.8,0.5c0.5,0.4,1,0.7,1.5,1.1c-0.6,0.4-1.2,0.7-1.9,1.1c-4.6,2.7-9.6,5.1-14.6,7.5 c-5,2.4-10.2,4.7-15.4,6.9c-5.2,2.2-10.4,4.4-15.6,6.4l-21.5,8.5l-2.5,1l24.8,6.7c2.5,0.7,4.7,1.2,7.1,1.7c2.3,0.5,4.6,1,7,1.4 c4.7,0.8,9.3,1.5,14.1,2c3.2,0.4,6.4,0.6,9.6,0.7c0.6,0,1.2,0.1,1.8,0.1C1002.7,530,1001.9,530.9,1001.1,531.8z"></path> </g> </svg> 